<svg xmlns="http://www.w3.org/2000/svg" viewBox="0 0 559.37335 793.70667" height="793.707" width="559.373"><defs><clipPath id="a"><path d="M0 595.28h419.53V0H0z"/></clipPath></defs><g clip-path="url(#a)" transform="matrix(1.33333 0 0 -1.33333 0 793.707)"><path d="M243.018 291.093c-.243-1.14-1.012-2.322-2.221-2.75-1.926-.848-4.53-.613-6.314.378-1.495 1.046-1.688 2.796-1.881 4.454-.147 3.267-.382 6.726.533 9.715.718 1.85 2.696 2.326 4.484 2.465 1.88 0 3.708-.286 4.87-1.802.722-1.087.676-2.51.819-3.791-.051-2.7.192-5.92-.29-8.67m11.382 13.502c-.87 2.28-2.653 4.316-4.824 5.782-6.268 3.98-15.82 4.265-22.277.667-3.522-1.797-5.836-5.352-6.557-9.01-1.306-6.011-.97-13.165 3.66-17.67 5.404-4.736 13.263-5.782 20.254-3.837.33.063 1.384.327 2.11.713l.207.088c2.17.903 4.24 2.372 5.785 4.363 3.569 5.214 3.813 13.03 1.642 18.904m-68.526-16.444c-1.591.096-3.375-.043-4.916.145l.046 16.635.097.138 4.773.047c.05 2.7.097 5.596-.05 8.056l-18.176.051-2.993-.05a227.36 227.36 0 0 1 0-8.007c1.641-.05 3.182 0 4.773-.147V288.91l-.046-.663-4.774-.097c-.1-2.648-.1-5.21 0-7.817h21.265zm35.589-25.018l-2.267-.71c-.386.189-.722.475-1.062.76l.097.143c3.086 1.797 5.88 3.98 8.535 6.587 1.3-.52 2.556-1.234 3.716-2.036-2.7-2.141-5.836-3.557-9.02-4.744m-4.63-1.322c-5.108-1.096-10.802-1.14-15.911.092-.097.235.239.285.386.423 4.484 2.893 11.474 2.893 15.866-.23.143-.285-.244-.193-.34-.285m-17.89.612c-4.051 1.046-7.813 2.847-11.285 5.308v.146c1.159.705 2.318 1.465 3.569 1.99 2.75-2.71 5.592-4.744 8.682-6.683-.244-.286-.63-.572-.966-.761m-6.222 8.103c1.886.903 3.859 1.57 5.882 2.086l.197-.05c1.394-2.607 3.132-5.068 4.867-7.532-.672-.381-1.495-.612-2.167-.995a32.498 32.498 0 0 0-8.78 6.352zm7.767 2.56c2.507.475 5.11.854 7.809.854l.05-8.016c-1.015-.23-2.124-.23-3.09-.474-1.977 2.33-3.614 4.84-5.012 7.449zm9.304.854c2.75-.051 5.5-.336 8.053-.95l.05-.142c-1.348-2.557-3.04-5.026-4.87-7.344-.823-.096-1.591.232-2.41.28l-.823.099c-.097 2.796-.147 5.26 0 8.057m9.5-1.424l.144.096c2.078-.473 4.05-1.137 5.885-2.036-1.545-1.75-3.522-3.27-5.352-4.547-1.11-.663-2.221-1.38-3.38-1.943l-2.07.899.143.327c1.739 2.32 3.283 4.694 4.63 7.204m20.107 4.265c-2.024-2.892-4.581-5.688-7.373-7.863-.1-.146-.39-.092-.482.046-1.21.756-2.511 1.373-3.67 2.129 1.545 1.847 3.04 3.694 4.198 5.739h-1.498c-1.201-1.76-2.456-3.606-4.048-5.168-2.124.852-4.05 1.612-6.221 2.183l-.24.18c.336.958.96 1.856 1.155 2.805h-1.302l-1.301-2.56c-2.842.616-5.978.948-8.871 1.136-.147.424.046 1.04-.147 1.424h-1.252c-.1-.571.143-1-.146-1.474-2.99-.138-5.882-.47-8.678-1.045l-1.306 2.519c-.48 0-1.012.092-1.348-.051l1.205-2.795-.143-.14a61.258 61.258 0 0 1-6.364-2.23l-.193.098c-1.352 1.47-2.654 3.073-3.716 4.686-.24.809-1.205.336-1.734.432 1.155-2.087 2.7-3.933 4.24-5.832-1.301-.76-2.598-1.607-3.954-2.228-2.893 2.182-5.588 5.025-7.616 8.009-.58.092-.962.05-1.545 0 3.472-5.403 8.875-10.138 14.518-12.935 0 0 0 .043.05.043.042 0 .138-.088.042-.14 3.812-1.846 7.864-3.173 12.154-3.744 14.804-1.94 28.935 4.358 37.13 16.776a7.804 7.804 0 0 1-1.544 0m-51.934 48.903c3.04 2.225 6.415 3.884 9.984 5.02.146.148.239.287.432.287v-.097c.386-.092.676.336 1.012.055.29-.244.63-.432.869-.668-2.99-1.843-5.932-4.026-8.632-6.675-1.301.466-2.506 1.18-3.665 1.986zm29.418 5.878v-.097c-4.198-3.027-10.996-3.312-15.43-.516-.247.189-.725.28-.776.613 5.114 1.18 11.139 1.276 16.206 0m1.927-.475c4.05-1.045 7.859-2.842 11.332-5.306l-.097-.19-3.325-1.846h-.243c-2.553 2.552-5.542 4.777-8.582 6.536.096.332.579.57.915.806m6.176-8.102c-1.885-.802-3.816-1.562-5.886-1.995-1.494 2.51-3.132 5.022-4.971 7.448.676.37 1.499.655 2.22 1.033 3.14-1.562 6.177-3.787 8.729-6.34zm-15.387-3.322c-.097 2.52-.047 5.312 0 7.919.965.138 2.023.285 2.989.424 1.88-2.364 3.716-4.79 4.97-7.385a34.207 34.207 0 0 0-7.96-.958m-1.494.05c-1.347-.188-2.553.043-3.91.148-1.296.189-2.937.327-4.24.76 1.399 2.595 3.04 5.109 5.018 7.427l3.086-.42c.143-2.46.046-5.307.046-7.914m-9.593 1.276l-.193-.042c-1.978.517-3.91 1.138-5.74 1.94l.093.286c2.653 2.51 5.449 4.597 8.535 6.205.726-.286 1.448-.521 2.17-.857l-.142-.37c-1.835-2.28-3.28-4.74-4.723-7.162m-20.014-4.164a44.304 44.304 0 0 0 3.905 4.689c1.25 1.184 2.41 2.322 3.762 3.178 1.255-.806 2.653-1.477 3.858-2.233-1.495-1.84-3.036-3.695-4.148-5.681.336-.146.966-.1 1.448 0 1.205 1.75 2.507 3.506 4.052 5.068 2.07-.76 4.097-1.562 6.22-2.133l.19-.19-1.204-2.745c.533-.1.869-.05 1.398 0 .432.802.768 1.7 1.25 2.51 2.8-.62 5.744-.948 8.734-1.04.385-.336.096-1.045.239-1.47h1.3c.144.467-.045.995.144 1.415 2.8.147 5.739.433 8.447 1.096l.235-.05 1.302-2.461c.437 0 1.012-.1 1.352.097l-1.21 2.742.1.096c2.214.57 4.292 1.423 6.412 2.27 1.499-1.56 2.893-3.408 4.153-5.205.528 0 1.057-.05 1.444.097a19.31 19.31 0 0 1-2.074 2.985c-.63.899-1.302 1.7-2.125 2.552v.244l3.376 1.94.487.189a35.172 35.172 0 0 0 7.615-7.91c.579 0 1.063-.197 1.545.042-6.465 9.664-17.121 15.878-28.64 16.772l-.051-.092-.097.092c-1.301.139-2.897.194-4.295.055-.53.042-1.155 0-1.784-.055-11.571-.894-22.226-6.822-28.885-16.911.483.047 1.062-.146 1.545.047m29.657-29.045c-4.534-1.234-9.455-.294-12.733 3.123-.383.475-.626 1.037-1.013 1.512l-6.507-.047c-.1-3.836-.147-8.244 0-12.036l7.23.046.096 2.275c.823-.377 1.642-.852 2.461-1.275 5.016-2.087 11.474-2.562 16.441 0 3.62 1.985 5.55 5.822 5.016 9.954-.528 4.022-4.387 7.674-8.29 8.665l-11.673 3.367-.865.428c-.386.328-.629.752-.533 1.277.915 1.562 3.04 1.087 4.631 1.045 3.375-.475 6.847-1.612 8.825-4.694 2.12 0 4.58-.042 6.893.05.097 3.884-.04 7.293-.096 11.227-2.17.05-4.823.05-6.99-.05-.097-.563.092-1.365-.147-1.936l-2.217 1.184c-5.307 2.225-12.734 2.46-17.553-.999-3.137-2.27-4.098-6.352-3.279-9.95.625-3.409 3.904-5.92 7.04-7.104 4.291-1.515 8.775-2.61 13.12-4.076.433-.193 1.008-.622.915-1.142 0-.42-.436-.664-.772-.844m-45.585-10.916l.235-.54c.042-.103-.013-.22-.122-.267l-6.948-3c-.101-.043-.218-.013-.265.096l-.234.541a.196.196 0 0 0 .108.261l6.953 3.001c.096.043.227.017.273-.092m-2.058 5.614l.164-.486a.215.215 0 0 0-.134-.274l-3.359-1.134c-1.028-.348-1.226-.801-.966-1.58.143-.427.47-.85.861-1.242l4.308 1.453a.22.22 0 0 0 .272-.134l.168-.5a.21.21 0 0 0-.138-.26l-5.202-1.76c-.113-.037-.23.014-.269.127l-.172.508a.207.207 0 0 0 .14.263l.192.07c-.508.452-.815.858-1.016 1.46-.416 1.225.164 2.031 1.52 2.493l3.36 1.13a.217.217 0 0 0 .271-.135m-.952 4.018c.08-.2.168-.47.214-.668.226-.965.088-1.48-1.062-1.758l-3.653-.869.126-1.04c.017-.119-.025-.22-.143-.245l-.281-.067c-.113-.03-.205.038-.235.151l-.243 1.016-1.025-.244c-.105-.025-.206.03-.252.14l-.214.523c-.004.01-.004.022-.008.03-.021.084.038.177.142.201l1.138.27-.27 1.132a.217.217 0 0 0 .16.257l.358.084a.215.215 0 0 0 .26-.159l.269-1.13 3.648.873c.575.134.626.302.525.722l-.14.584c-.032.146-.007.23.098.256l.365.087c.093.022.168-.015.223-.146m-4.153 3.981c-1.205-.168-1.608-.688-1.478-1.63.126-.915.718-1.355 1.87-1.196l.095.013-.39 2.825zm.71.856l.491-3.57.151.023c1.268.175 1.667.738 1.532 1.72a15.07 15.07 0 0 1-.378 1.88c-.004.023-.008.035-.008.056-.013.084.017.177.126.189l.361.05c.14.022.218-.012.273-.176a9.968 9.968 0 0 0 .45-1.884c.167-1.226-.244-2.498-2.226-2.776l-.96-.13c-1.525-.215-2.608.495-2.823 2.02-.214 1.556.655 2.48 2.171 2.69l.575.08c.138.017.243-.042.264-.172m-2.724 3.712c.025-.496.176-.937.525-1.457l4.496.234a.224.224 0 0 0 .223-.205l.03-.525a.212.212 0 0 0-.207-.214l-5.47-.286c-.118-.004-.219.076-.222.193l-.026.504c-.008.117.084.21.202.215l.226.012c-.402.516-.57 1.004-.596 1.486-.004.15.055.227.185.235l.437.02c.117.01.19-.062.197-.212m5.286 5.6l-.021-.517a.214.214 0 0 0-.223-.205l-3.53.142c-1.083.042-1.432-.31-1.461-1.125-.021-.449.13-.961.36-1.465l4.526-.181a.224.224 0 0 0 .206-.222l-.021-.525a.208.208 0 0 0-.222-.193l-5.47.214a.208.208 0 0 0-.206.214l.02.538c.005.117.105.197.223.193l.202-.009c-.307.605-.45 1.092-.425 1.726.05 1.289.878 1.834 2.306 1.776l3.526-.139a.216.216 0 0 0 .21-.222m-2.234 4.954l-.118-.785c-.189-1.285.047-1.667.802-1.78l.126-.017c.764-.113 1.021.214 1.113.832.071.49-.013.948-.215 1.499zm2.935.307l-.076-.492a.214.214 0 0 0-.244-.18l-.235.033c.223-.554.37-1.116.282-1.712-.135-.903-.65-1.671-1.978-1.478l-.13.02c-1.146.169-1.62.924-1.344 2.818l.118.785-.424.063c-.894.13-1.247-.13-1.368-.957a15.147 15.147 0 0 1-.156-1.642l-.008-.05c-.017-.097-.063-.19-.198-.168l-.373.054c-.118.017-.168.1-.168.252-.013.45-.005.949.105 1.67.218 1.475 1.05 1.962 2.304 1.777l3.708-.55a.218.218 0 0 0 .185-.243m.945 3.967a5.339 5.339 0 0 0-.11-.692c-.23-.962-.591-1.361-1.742-1.088l-3.652.869-.357-.986c-.038-.114-.118-.181-.235-.156l-.281.067c-.118.03-.168.13-.143.244l.243 1.016-1.024.244c-.105.024-.172.12-.164.239l.042.562a.084.084 0 0 1 .008.034c.02.084.114.138.215.113l1.14-.268.27 1.129c.03.113.147.185.26.159l.358-.088a.216.216 0 0 0 .159-.256l-.27-1.13 3.65-.872c.575-.135.696-.01.793.41l.143.585c.033.146.092.209.197.184l.365-.088c.097-.021.147-.088.135-.231m.516 1.751l-.151-.491a.217.217 0 0 0-.27-.143l-5.234 1.604a.216.216 0 0 0-.143.268l.152.496a.216.216 0 0 0 .268.142l5.235-1.607a.213.213 0 0 0 .143-.27m-6.541 2.033l-.16-.525a.218.218 0 0 0-.268-.143l-.823.252a.217.217 0 0 0-.143.269l.16.525a.219.219 0 0 0 .269.143l.822-.252a.217.217 0 0 0 .143-.27m5.21 4.081c-1.016.407-1.826.256-2.2-.68-.37-.928.105-1.59 1.134-2.003l.755-.298c1.017-.407 1.827-.265 2.2.672.366.928-.104 1.6-1.133 2.007zm2.654-2.616c-.584-1.465-1.848-1.826-3.313-1.242l-.756.298c-1.47.583-2.137 1.717-1.553 3.182.584 1.465 1.85 1.84 3.317 1.255l.759-.302c1.466-.583 2.129-1.725 1.546-3.19m3.287 6.96l-.244-.453a.215.215 0 0 0-.29-.088l-3.118 1.67c-.958.518-1.424.35-1.81-.368-.214-.4-.302-.928-.32-1.478l4.002-2.145a.23.23 0 0 0 .088-.294l-.252-.462c-.05-.096-.181-.134-.285-.08l-4.833 2.595c-.105.054-.151.176-.092.28l.252.475a.207.207 0 0 0 .285.076l.18-.097c-.012.68.077 1.184.375 1.743.608 1.138 1.595 1.268 2.854.592l3.12-1.671a.22.22 0 0 0 .088-.294m.131 5.386l-.45-.655c-.73-1.07-.689-1.52-.059-1.952l.105-.072c.638-.436 1.011-.252 1.364.265.282.407.408.852.466 1.435zm2.77-1.012l-.282-.407a.215.215 0 0 0-.298-.055l-.193.13c-.042-.592-.159-1.163-.499-1.658-.517-.756-1.319-1.222-2.427-.462l-.105.071c-.957.655-1.054 1.541.03 3.12l.45.655-.358.243c-.743.508-1.176.43-1.65-.264a14.896 14.896 0 0 1-.856-1.403l-.03-.04c-.054-.08-.138-.144-.252-.064l-.31.21c-.097.067-.11.167-.043.302.19.407.416.848.827 1.452.844 1.23 1.802 1.302 2.847.584l3.094-2.116a.215.215 0 0 0 .055-.298m1.431 1.797l-.353-.437c-.066-.084-.192-.092-.285-.016l-5.987 4.794c-.084.068-.113.185-.042.277l.353.437c.067.084.185.096.277.025l5.987-4.794c.084-.068.122-.193.05-.286m2.83 9.703c-1.234 1.318-2.238 1.318-3.099.512-.856-.802-.932-1.818.303-3.136l.944-1.012c1.235-1.314 2.247-1.31 3.111-.5.852.798.924 1.81-.31 3.124zm1.86-4.782c-1.23-1.15-2.8-1.268-4.43.47l-.949 1.012c-1.632 1.742-1.414 3.3-.184 4.454 1.234 1.155 2.796 1.264 4.425-.478l.95-1.012c1.628-1.738 1.418-3.291.188-4.446m1.763 8.279c-.395-.302-.672-.676-.903-1.26l2.734-3.572a.224.224 0 0 0-.039-.302l-.419-.32c-.084-.067-.219-.046-.294.047l-3.325 4.349a.204.204 0 0 0 .03.294l.398.306a.205.205 0 0 0 .294-.046l.138-.176c.198.62.504 1.033.89 1.326.118.093.22.089.294-.016l.27-.35c.071-.091.05-.188-.068-.28m7.141-1.94c-.227.357-.608.315-1.553.004l-1.193-.39c-.117-.395-.155-.735.147-1.205l.051-.084c.323-.504.822-.63 1.83.008 1.033.66 1.083 1.1.764 1.596zm-2.439 3.67c-.344.541-.86.81-1.839.188-1.016-.647-.928-1.243-.604-1.75l.046-.072c.252-.399.768-.806 1.81-.142.977.621.982 1.158.633 1.7zm.172 1.506l-.285-.268c.273-.072.587-.248.902-.739l.046-.07c.634-.996.37-1.94-1.024-2.83-.478-.308-.835-.43-1.167-.488-.105-.172-.114-.319-.03-.454.101-.155.223-.188.467-.109l1.57.512c1.028.34 2.044.63 2.586-.222l.046-.07c.554-.87.315-1.773-1.17-2.718-1.429-.915-2.436-.777-2.999.11l-.054.083a1.73 1.73 0 0 0-.16 1.512l-.084-.013c-.37-.058-.684.16-.865.441l-.004.008a.882.882 0 0 0-.046.89c-.448.08-.793.32-1.086.781l-.047.076c-.512.806-.567 1.89.99 2.884l1.983 1.264c.109.067.264.042.336-.068l.146-.234c.076-.118.038-.194-.05-.278m5.243.064l-.713-.348c-1.168-.575-1.344-.991-1.008-1.675l.06-.114c.34-.696.76-.717 1.317-.441.445.219.773.55 1.113 1.029zm1.923-2.242l-.445-.218a.214.214 0 0 0-.286.1l-.105.21c-.33-.496-.713-.936-1.254-1.205-.819-.403-1.747-.416-2.339.79l-.059.112c-.512 1.041-.164 1.865 1.553 2.708l.714.353-.189.386c-.403.812-.819.954-1.57.58a15.355 15.355 0 0 1-1.436-.803.285.285 0 0 0-.05-.024c-.088-.042-.189-.06-.248.066l-.168.341c-.054.105-.012.197.114.281.361.265.776.542 1.431.865 1.34.66 2.213.252 2.775-.886l1.66-3.367a.218.218 0 0 0-.098-.29m5.336 2.05l-.487-.176a.213.213 0 0 0-.273.13l-1.209 3.32c-.369 1.02-.827 1.21-1.595.933-.425-.156-.84-.492-1.222-.891l1.55-4.265a.218.218 0 0 0-.127-.273l-.495-.18a.212.212 0 0 0-.265.13l-1.877 5.155c-.037.11.01.23.118.269l.508.185c.11.042.223-.021.265-.13l.071-.193c.441.516.84.83 1.436 1.049 1.213.44 2.032-.122 2.523-1.465l1.21-3.321a.222.222 0 0 0-.13-.277m2.22.6l-.5-.134c-.113-.034-.23.038-.264.15l-1.436 5.287a.213.213 0 0 0 .151.264l.496.135a.22.22 0 0 0 .264-.152l1.436-5.285a.213.213 0 0 0-.147-.265m-1.78 6.617l-.529-.143a.218.218 0 0 0-.264.15l-.227.833c-.03.113.038.23.151.26l.529.147a.22.22 0 0 0 .265-.152l.226-.831a.22.22 0 0 0-.151-.264m6.915-5.496l-3.191-.625c-.453-.09-.701.159-.76.457l-.037.202c-.06.294-.026.466.109.73l2.06 3.925c.014.034.03.072.026.102-.008.045-.038.07-.122.054l-2.564-.5a.217.217 0 0 0-.257.168l-.067.362a.216.216 0 0 0 .168.25l3.107.606c.432.088.63-.084.693-.4l.05-.255c.042-.22 0-.395-.131-.626l-2.1-4.017a.169.169 0 0 1-.028-.131c.008-.05.025-.08.1-.067l2.789.546a.213.213 0 0 0 .252-.168l.07-.361a.219.219 0 0 0-.167-.252m4.038 3.308l-.789-.076c-1.297-.117-1.612-.436-1.54-1.196l.012-.13c.071-.769.453-.937 1.07-.882.492.046.92.235 1.407.562zm.991-2.779l-.495-.047a.216.216 0 0 0-.23.198l-.022.235c-.487-.349-.999-.622-1.6-.676-.91-.084-1.78.235-1.902 1.57l-.013.13c-.104 1.155.513 1.793 2.42 1.97l.788.07-.038.43c-.084.897-.42 1.178-1.255 1.103a16.238 16.238 0 0 1-1.629-.235c-.02-.005-.034-.005-.055-.009-.096-.008-.192.017-.205.156l-.034.373c-.013.118.055.19.206.223.428.118.915.226 1.641.294 1.487.134 2.154-.559 2.272-1.818l.344-3.732a.219.219 0 0 0-.193-.235m4.119.046a5.04 5.04 0 0 0-.701-.063c-.991-.017-1.465.235-1.486 1.419l-.055 3.753-1.045.101c-.118.013-.206.076-.21.193l-.004.29c0 .118.084.193.2.197l1.047.017-.017 1.054c0 .105.07.193.189.218l.558.092h.034c.088.005.163-.071.163-.18l.017-1.171 1.163.017a.213.213 0 0 0 .219-.21l.008-.366a.219.219 0 0 0-.214-.218l-1.163-.021.059-3.753c.008-.592.159-.676.592-.668l.6.008c.15.005.227-.037.23-.147l.005-.377c0-.097-.05-.16-.19-.185m2.293 6.743l-.55.034a.215.215 0 0 0-.2.226l.05.857c.008.117.108.21.225.2l.551-.028a.219.219 0 0 0 .201-.227l-.05-.86a.215.215 0 0 0-.227-.202m-.42-6.843l-.516.033a.216.216 0 0 0-.202.227l.32 5.47a.218.218 0 0 0 .226.202l.517-.03a.22.22 0 0 0 .201-.23l-.318-5.467a.22.22 0 0 0-.228-.205m5.601 2.779c.147 1.087-.192 1.839-1.196 1.978-.991.129-1.52-.492-1.671-1.588l-.11-.81c-.146-1.087.185-1.84 1.189-1.977.99-.13 1.532.49 1.68 1.586zm-1.897-3.216c-1.571.214-2.23 1.356-2.015 2.922l.108.81c.21 1.566 1.15 2.494 2.717 2.28 1.57-.214 2.237-1.356 2.027-2.922l-.108-.811c-.215-1.565-1.163-2.493-2.73-2.28m7.54-1.515l-.498.126a.213.213 0 0 0-.155.264l.873 3.43c.268 1.054-.004 1.466-.798 1.671-.437.11-.97.068-1.512-.05l-1.12-4.4a.22.22 0 0 0-.262-.155l-.51.13c-.106.025-.173.143-.148.256l1.357 5.32c.029.117.138.188.252.158l.52-.134c.117-.025.176-.142.147-.256l-.05-.197c.654.176 1.162.214 1.779.055 1.252-.32 1.617-1.243 1.264-2.633l-.877-3.43a.217.217 0 0 0-.261-.155m9.109 4.513l-.478.197c-.465.193-.663.114-.885-.432l-.298-.718 1.045-.428c.109-.047.156-.16.114-.26l-.16-.387c-.042-.1-.147-.134-.256-.092l-1.046.432-1.868-4.534c-.042-.097-.172-.16-.272-.118l-.488.202c-.11.042-.155.18-.117.277l1.872 4.534-.92.508c-.104.055-.154.155-.117.256l.113.27c.042.096.152.142.26.1l.967-.399.294.714c.44 1.066 1.087 1.171 1.96.81.269-.114.416-.206.533-.29.097-.076.16-.147.126-.239l-.14-.328c-.041-.109-.13-.117-.238-.075m2.616-5.865c.508.97.44 1.792-.454 2.263-.881.462-1.591.06-2.108-.92l-.377-.726c-.508-.97-.45-1.788.445-2.254.882-.467 1.599-.063 2.116.915zm-2.88-2.372c-1.398.735-1.629 2.032-.894 3.43l.378.722c.734 1.398 1.93 1.948 3.329 1.213 1.398-.73 1.637-2.032.902-3.43l-.378-.726c-.734-1.398-1.939-1.94-3.337-1.209m7.842 1.424c-.415.264-.86.403-1.486.42l-2.435-3.78c-.058-.087-.197-.13-.294-.062l-.445.28c-.088.06-.117.195-.055.295l2.96 4.597c.068.102.19.135.29.072l.424-.273c.1-.063.118-.193.055-.29l-.122-.19c.655.026 1.146-.126 1.549-.386.126-.08.156-.176.088-.285l-.24-.37c-.062-.1-.163-.113-.29-.029m1.462-7.711c-.566.49-.94.914-1.251 1.28-.117.142-.104.188-.03.281l.282.323c.08.088.177.075.252.012.009-.008.017-.016.025-.02.344-.357.924-.886 1.297-1.21.979-.843 1.575-.675 2.067-.105.352.403.31.836-.035 1.932l-.378 1.158c-.352 1.105-.37 1.84.194 2.49.848.987 1.948.831 3.186-.235a15.144 15.144 0 0 0 1.33-1.318c.069-.089.089-.176.018-.26l-.303-.349c-.066-.08-.167-.08-.247-.013l-.016.017c-.341.332-.886.848-1.357 1.255-.84.722-1.351.853-1.864.261-.331-.387-.26-.844.038-1.75l.36-1.097c.458-1.373.409-2.107-.154-2.758-.672-.78-1.81-1.276-3.414.105m4.526-4.249c-.172.13-.382.315-.525.462-.693.705-.835 1.222.008 2.049l2.68 2.624-.647.827c-.077.088-.088.197-.004.281l.21.202c.083.084.197.071.276-.013l.731-.743.751.735c.076.075.194.084.29.012l.454-.34.02-.021c.06-.063.06-.168-.016-.243l-.84-.819.814-.827a.222.222 0 0 0-.004-.307l-.26-.255a.22.22 0 0 0-.306.003l-.81.832-2.679-2.624c-.42-.412-.378-.58-.076-.886l.42-.428c.105-.109.126-.193.05-.269l-.268-.264c-.072-.068-.156-.072-.269.012m4.874-1.327l-.504.613c-.818 1.012-1.264 1.092-1.85.613l-.102-.084c-.6-.487-.529-.898-.134-1.385.311-.382.705-.63 1.251-.853zm-1.755-2.376l-.31.386a.214.214 0 0 0 .03.303l.183.146c-.558.21-1.074.487-1.452.954-.58.705-.8 1.608.24 2.456l.1.084c.902.73 1.78.575 2.985-.91l.504-.619.335.273c.698.571.744 1.008.215 1.658-.44.542-.802.916-1.108 1.222-.013.017-.017.026-.034.042-.059.076-.097.168.012.256l.29.24c.092.075.19.058.302-.047a9.558 9.558 0 0 0 1.163-1.2c.941-1.159.74-2.104-.243-2.9l-2.909-2.373a.218.218 0 0 0-.303.03m3.141-4.686l-.277.433a.211.211 0 0 0 .063.297l2.968 1.919c.911.592.991 1.079.546 1.764-.243.378-.663.709-1.138.99l-3.808-2.464a.222.222 0 0 0-.298.063l-.285.44a.212.212 0 0 0 .071.29l4.597 2.977c.101.063.231.046.294-.055l.289-.45c.068-.1.03-.225-.067-.288l-.172-.11c.601-.314.999-.634 1.344-1.167.701-1.083.34-2.007-.86-2.783l-2.969-1.923a.218.218 0 0 0-.298.067m6.768-1.994c-.101.349-.34.852-.495 1.159-.471.945-1.21.957-2.238.445l-.69-.345c-1.05-.52-1.485-1.112-1.011-2.061.16-.327.424-.785.618-1.095zm-4.131-2.86a10.36 10.36 0 0 0-1.046 1.689c-.714 1.43-.11 2.556 1.33 3.278l.694.345c1.507.75 2.7.479 3.396-.924.152-.298.349-.764.467-1.171l1.788.89a.207.207 0 0 0 .273-.092l.244-.491c.049-.093.007-.21-.097-.261l-6.726-3.355c-.126-.062-.206-.067-.323.093m4.265-3.334l-.277.747c-.453 1.218-.844 1.436-1.562 1.171l-.118-.042c-.727-.272-.789-.684-.575-1.268.172-.465.466-.822.907-1.209zm-2.427-1.68l-.173.462a.218.218 0 0 0 .126.278l.223.084c-.462.377-.86.801-1.07 1.364-.315.856-.236 1.78 1.024 2.25l.122.042c1.087.408 1.863-.025 2.531-1.818l.278-.747.402.151c.845.315 1.03.714.735 1.5a16.1 16.1 0 0 1-.65 1.51c-.009.021-.013.03-.02.051-.035.088-.035.193.095.24l.353.13c.11.041.197-.005.268-.139.223-.386.458-.827.71-1.512.521-1.402.025-2.225-1.163-2.666l-3.514-1.306a.218.218 0 0 0-.277.126m6.016-2.291c-.134.474-.378.877-.83 1.31l-4.342-1.197a.223.223 0 0 0-.265.15l-.142.509a.215.215 0 0 0 .155.252l5.285 1.457c.114.034.232-.025.261-.138l.135-.488c.033-.113-.038-.222-.152-.255l-.218-.06c.504-.42.772-.856.898-1.322.042-.147 0-.235-.126-.273l-.424-.113c-.113-.034-.197.02-.235.168m.827-4.484c-.004.36-.097.915-.159 1.25-.194 1.038-.899 1.256-2.029 1.042l-.759-.138c-1.155-.215-1.734-.664-1.54-1.71.066-.36.192-.872.293-1.225zm-4.76-1.616a10.44 10.44 0 0 0-.543 1.91c-.293 1.574.597 2.494 2.18 2.788l.764.142c1.658.307 2.73-.281 3.014-1.822.063-.327.122-.827.126-1.255l1.965.365a.2.2 0 0 0 .235-.164l.101-.537c.021-.105-.047-.206-.164-.227l-7.394-1.377c-.138-.025-.217-.008-.285.177m6.953-1.575l-.06.546a.217.217 0 0 0 .195.235l.856.088a.214.214 0 0 0 .236-.19l.054-.545a.218.218 0 0 0-.19-.24l-.856-.087a.216.216 0 0 0-.235.193m-6.826-.692l-.051.516a.213.213 0 0 0 .19.235l5.453.566a.212.212 0 0 0 .235-.188l.055-.517a.217.217 0 0 0-.194-.235l-5.45-.566a.216.216 0 0 0-.238.189m.277-5.27l-.097 3.245c-.016.466.269.668.572.676l.205.004c.298.013.462-.05.705-.222l3.54-2.67c.033-.02.062-.042.096-.042.041 0 .076.025.072.11l-.08 2.614a.218.218 0 0 0 .21.223l.365.008a.216.216 0 0 0 .223-.205l.096-3.166c.012-.44-.185-.609-.509-.617l-.259-.008c-.227-.009-.391.063-.597.23l-3.627 2.721a.172.172 0 0 1-.122.05c-.05 0-.084-.012-.084-.088l.089-2.842a.217.217 0 0 0-.21-.223l-.365-.008a.215.215 0 0 0-.223.21m2.624-4.597l.055.794c.091 1.297-.173 1.662-.933 1.717l-.13.009c-.772.053-1.004-.298-1.046-.92-.033-.492.084-.945.328-1.478zm-2.905-.528l.037.495a.211.211 0 0 0 .227.197l.235-.017c-.26.538-.449 1.088-.407 1.688.063.916.52 1.72 1.86 1.629l.13-.008c1.159-.084 1.687-.8 1.553-2.71l-.054-.792.428-.03c.903-.062 1.234.223 1.292 1.063.051.698.042 1.213.031 1.646.004.02.004.034.004.055.007.096.046.188.184.18l.378-.025c.117-.008.177-.088.185-.244.046-.445.075-.94.025-1.67-.105-1.49-.898-2.037-2.166-1.95l-3.741.26a.22.22 0 0 0-.201.233m-.626-4.052c.004.218.025.499.059.7.15.979.483 1.407 1.65 1.223l3.707-.584.28 1.012c.03.113.107.189.224.172l.285-.045c.118-.018.18-.114.16-.232l-.16-1.032 1.04-.164a.217.217 0 0 0 .182-.223v-.566c-.004-.014-.004-.022-.004-.034-.017-.084-.101-.148-.206-.13l-1.158.179-.181-1.145a.222.222 0 0 0-.248-.181l-.36.059a.217.217 0 0 0-.181.248l.18 1.146-3.707.584c-.583.092-.693-.043-.76-.47l-.092-.592c-.025-.152-.08-.22-.185-.201l-.374.058c-.092.016-.151.079-.151.218m6.318-3.326l.118.537c.025.113.14.19.256.164l.84-.189a.216.216 0 0 0 .163-.256l-.117-.533a.215.215 0 0 0-.256-.164l-.84.185a.216.216 0 0 0-.164.256m-6.69 1.508l.107.504a.216.216 0 0 0 .257.163l5.352-1.189a.213.213 0 0 0 .164-.256l-.109-.503a.22.22 0 0 0-.256-.165l-5.353 1.19a.213.213 0 0 0-.163.256m1.833-5.949c1.047-.319 1.845-.105 2.143.86.289.957-.236 1.58-1.293 1.902l-.782.24c-1.05.322-1.842.113-2.136-.849-.294-.957.23-1.587 1.289-1.915zm-2.857 2.393c.46 1.511 1.69 1.972 3.203 1.511l.78-.239c1.508-.462 2.268-1.536 1.806-3.048-.462-1.508-1.701-1.982-3.208-1.519l-.781.238c-1.507.463-2.267 1.55-1.8 3.057m-2.705-7.155l.206.471c.05.11.176.16.285.11l3.238-1.41c.994-.439 1.443-.237 1.771.511.181.416.223.944.197 1.498l-4.156 1.814a.221.221 0 0 0-.109.281l.21.483c.042.096.171.146.281.101l5.016-2.192c.11-.046.165-.163.114-.272l-.214-.492c-.046-.109-.168-.15-.277-.1l-.189.08c.071-.672.025-1.18-.23-1.764-.513-1.18-1.487-1.39-2.792-.818l-3.238 1.414a.219.219 0 0 0-.113.285m-55.868-27.884c0 1.863-.592 2.246-1.386 2.246-.755 0-1.33-.353-1.33-1.696v-.097c0-1.125.66-1.428 1.47-1.428.351 0 .931.084 1.246.139zm-1.524-6.402c-1.234 0-2.137.138-2.7.272-.218.055-.302.139-.302.302v1.193c0 .194.098.289.249.289h.066a17.383 17.383 0 0 1 2.499-.193c1.204 0 1.712.478 1.712 2.003v.097a9.285 9.285 0 0 0-1.62-.168c-1.848 0-3.384.785-3.384 3.06v.097c0 2.083 1.26 3.48 3.618 3.48 2.21 0 3.674-1.301 3.674-4.03v-2.1c0-3.097-1.482-4.302-3.812-4.302m10.214 5.796c0 2.167-.587 2.688-1.355 2.688-.77 0-1.343-.52-1.343-2.688v-1.18c0-2.166.574-2.67 1.343-2.67.768 0 1.356.504 1.356 2.67zm-1.355-5.797c-2.33 0-3.69 1.33-3.69 4.617v1.18c0 3.292 1.36 4.636 3.69 4.636s3.699-1.344 3.699-4.636v-1.18c0-3.287-1.37-4.617-3.7-4.617m10.064 5.797c0 2.167-.592 2.688-1.36 2.688-.764 0-1.343-.52-1.343-2.688v-1.18c0-2.166.58-2.67 1.343-2.67.768 0 1.36.504 1.36 2.67zm-1.36-5.797c-2.33 0-3.686 1.33-3.686 4.617v1.18c0 3.292 1.356 4.636 3.686 4.636 2.335 0 3.703-1.344 3.703-4.636v-1.18c0-3.287-1.368-4.617-3.703-4.617m7.776 2.07v5.895l-1.784-.77a.499.499 0 0 0-.164-.036c-.096 0-.151.066-.151.176v1.562c0 .096.042.15.139.193l2.48 1.167a.764.764 0 0 0 .316.054h1.234c.15 0 .26-.113.26-.26v-7.981h1.822c.152 0 .278-.108.278-.261v-1.41a.28.28 0 0 0-.278-.277h-5.974a.28.28 0 0 0-.277.277v1.41c0 .153.126.26.277.26z" fill="#0054a6"/></g></svg>