<?xml version="1.0" encoding="UTF-8" standalone="no"?>
<svg
   xmlns:dc="http://purl.org/dc/elements/1.1/"
   xmlns:cc="http://creativecommons.org/ns#"
   xmlns:rdf="http://www.w3.org/1999/02/22-rdf-syntax-ns#"
   xmlns:svg="http://www.w3.org/2000/svg"
   xmlns="http://www.w3.org/2000/svg"
   viewBox="0 0 559.37335 793.70667"
   height="793.70667"
   width="559.37335"
   xml:space="preserve"
   id="svg2"
   version="1.1"><metadata
     id="metadata8"><rdf:RDF><cc:Work
         rdf:about=""><dc:format>image/svg+xml</dc:format><dc:type
           rdf:resource="http://purl.org/dc/dcmitype/StillImage" /></cc:Work></rdf:RDF></metadata><defs
     id="defs6"><clipPath
       id="clipPath18"
       clipPathUnits="userSpaceOnUse"><path
         id="path16"
         d="M 0,595.28 H 419.53 V 0 H 0 Z" /></clipPath></defs><g
     transform="matrix(1.3333333,0,0,-1.3333333,0,793.70667)"
     id="g10"><g
       id="g12"><g
         clip-path="url(#clipPath18)"
         id="g14"><g
           transform="translate(243.0176,291.0928)"
           id="g20"><path
             id="path22"
             style="fill:#0054a6;fill-opacity:1;fill-rule:nonzero;stroke:none"
             d="m 0,0 c -0.243,-1.139 -1.012,-2.322 -2.221,-2.75 -1.926,-0.848 -4.53,-0.613 -6.314,0.378 -1.495,1.046 -1.688,2.796 -1.881,4.454 -0.147,3.267 -0.382,6.726 0.533,9.715 0.718,1.851 2.696,2.326 4.484,2.465 1.88,0 3.708,-0.286 4.87,-1.802 C 0.193,11.373 0.147,9.95 0.29,8.669 0.239,5.97 0.482,2.75 0,0 m 11.382,13.501 c -0.869,2.28 -2.653,4.316 -4.824,5.782 -6.268,3.98 -15.82,4.265 -22.277,0.667 -3.522,-1.797 -5.836,-5.352 -6.557,-9.009 -1.306,-6.012 -0.97,-13.166 3.661,-17.671 5.403,-4.736 13.262,-5.782 20.253,-3.837 0.331,0.063 1.384,0.327 2.111,0.713 l 0.206,0.088 c 2.17,0.903 4.24,2.372 5.785,4.363 3.569,5.214 3.813,13.031 1.642,18.904" /></g><g
           transform="translate(185.8735,288.1494)"
           id="g24"><path
             id="path26"
             style="fill:#0054a6;fill-opacity:1;fill-rule:nonzero;stroke:none"
             d="M 0,0 C -1.591,0.097 -3.375,-0.042 -4.916,0.146 L -4.87,16.781 -4.773,16.919 0,16.966 c 0.051,2.699 0.097,5.596 -0.05,8.056 l -18.175,0.051 -2.993,-0.051 c -0.047,-2.51 -0.047,-5.445 0,-8.006 1.641,-0.05 3.182,0 4.773,-0.147 V 0.76 L -16.491,0.097 -21.265,0 c -0.1,-2.648 -0.1,-5.21 0,-7.817 H 0 Z" /></g><g
           transform="translate(221.4629,263.1318)"
           id="g28"><path
             id="path30"
             style="fill:#0054a6;fill-opacity:1;fill-rule:nonzero;stroke:none"
             d="m 0,0 -2.267,-0.71 c -0.386,0.189 -0.722,0.475 -1.062,0.761 l 0.097,0.142 C -0.146,1.99 2.649,4.173 5.303,6.78 6.604,6.26 7.859,5.546 9.019,4.744 6.319,2.603 3.183,1.187 0,0 m -4.63,-1.322 c -5.109,-1.096 -10.803,-1.139 -15.912,0.092 -0.097,0.235 0.239,0.285 0.386,0.423 4.484,2.893 11.474,2.893 15.866,-0.23 0.143,-0.285 -0.244,-0.193 -0.34,-0.285 m -17.89,0.612 c -4.051,1.046 -7.813,2.847 -11.285,5.308 v 0.146 c 1.159,0.705 2.318,1.465 3.569,1.99 2.75,-2.709 5.592,-4.744 8.682,-6.683 -0.244,-0.286 -0.63,-0.572 -0.966,-0.761 m -6.222,8.103 c 1.886,0.903 3.859,1.57 5.882,2.086 l 0.197,-0.049 c 1.394,-2.608 3.132,-5.069 4.867,-7.533 -0.672,-0.381 -1.495,-0.612 -2.167,-0.995 -3.183,1.563 -6.222,3.745 -8.779,6.352 z m 7.767,2.561 c 2.507,0.474 5.11,0.853 7.809,0.853 l 0.05,-8.016 c -1.015,-0.23 -2.124,-0.23 -3.09,-0.474 -1.977,2.33 -3.614,4.841 -5.012,7.449 z m 9.304,0.853 c 2.75,-0.051 5.5,-0.336 8.053,-0.95 l 0.05,-0.142 c -1.348,-2.557 -3.039,-5.026 -4.87,-7.344 -0.823,-0.096 -1.591,0.232 -2.41,0.281 l -0.823,0.098 c -0.097,2.796 -0.147,5.26 0,8.057 M -2.17,9.383 -2.027,9.479 C 0.051,9.006 2.024,8.342 3.858,7.443 2.313,5.693 0.336,4.173 -1.494,2.896 -2.603,2.233 -3.715,1.516 -4.874,0.953 l -2.069,0.899 0.142,0.327 c 1.739,2.321 3.283,4.694 4.631,7.204 m 20.106,4.265 C 15.912,10.756 13.355,7.96 10.563,5.785 10.463,5.639 10.173,5.693 10.081,5.831 8.871,6.587 7.57,7.204 6.411,7.96 c 1.545,1.847 3.04,3.694 4.198,5.739 H 9.111 C 7.91,11.939 6.655,10.093 5.063,8.531 2.939,9.383 1.013,10.143 -1.158,10.714 l -0.239,0.181 c 0.335,0.957 0.96,1.855 1.154,2.804 h -1.302 l -1.301,-2.56 c -2.842,0.616 -5.978,0.948 -8.871,1.136 -0.147,0.424 0.046,1.041 -0.147,1.424 h -1.252 c -0.1,-0.571 0.143,-1 -0.146,-1.474 -2.989,-0.138 -5.882,-0.47 -8.678,-1.045 l -1.306,2.519 c -0.479,0 -1.012,0.092 -1.348,-0.051 l 1.205,-2.795 -0.143,-0.139 c -2.175,-0.621 -4.29,-1.382 -6.364,-2.23 l -0.193,0.097 c -1.352,1.47 -2.654,3.073 -3.716,4.686 -0.239,0.809 -1.205,0.336 -1.734,0.432 1.155,-2.087 2.7,-3.933 4.241,-5.832 -1.302,-0.76 -2.599,-1.607 -3.955,-2.228 -2.893,2.182 -5.588,5.025 -7.616,8.009 -0.58,0.092 -0.962,0.051 -1.545,0 3.472,-5.403 8.875,-10.138 14.518,-12.935 0,0 0,0.043 0.05,0.043 0.042,0 0.138,-0.088 0.042,-0.139 3.812,-1.847 7.864,-3.174 12.154,-3.745 14.804,-1.94 28.935,4.358 37.13,16.776 -0.427,0.051 -1.061,0.051 -1.544,0" /></g><g
           transform="translate(187.4648,325.6826)"
           id="g32"><path
             id="path34"
             style="fill:#0054a6;fill-opacity:1;fill-rule:nonzero;stroke:none"
             d="m 0,0 c 3.04,2.225 6.415,3.884 9.984,5.021 0.146,0.147 0.239,0.286 0.432,0.286 V 5.21 c 0.386,-0.092 0.676,0.336 1.012,0.055 0.29,-0.244 0.63,-0.432 0.869,-0.668 C 9.308,2.754 6.365,0.571 3.665,-2.078 2.364,-1.612 1.159,-0.898 0,-0.092 Z M 29.418,5.878 V 5.781 C 25.22,2.754 18.422,2.469 13.989,5.265 c -0.248,0.189 -0.726,0.281 -0.777,0.613 5.114,1.18 11.139,1.276 16.206,0 M 31.345,5.403 C 35.396,4.358 39.204,2.561 42.677,0.097 L 42.58,-0.092 39.255,-1.939 h -0.243 c -2.553,2.552 -5.542,4.777 -8.582,6.536 0.096,0.332 0.579,0.571 0.915,0.806 m 6.176,-8.102 c -1.885,-0.802 -3.816,-1.562 -5.886,-1.995 -1.494,2.511 -3.132,5.022 -4.971,7.448 0.676,0.37 1.499,0.655 2.221,1.033 C 32.025,2.225 35.061,0 37.613,-2.552 Z M 22.134,-6.021 c -0.097,2.52 -0.047,5.312 0,7.919 0.965,0.138 2.023,0.285 2.989,0.424 1.881,-2.364 3.716,-4.79 4.971,-7.385 -2.607,-0.622 -5.261,-0.958 -7.96,-0.958 m -1.495,0.051 c -1.347,-0.189 -2.553,0.042 -3.909,0.147 -1.297,0.189 -2.938,0.327 -4.24,0.76 1.398,2.595 3.04,5.109 5.017,7.427 l 3.086,-0.42 c 0.143,-2.46 0.046,-5.307 0.046,-7.914 m -9.593,1.276 -0.193,-0.042 c -1.978,0.517 -3.909,1.138 -5.739,1.94 L 5.206,-2.51 C 7.859,0 10.655,2.087 13.741,3.695 14.467,3.409 15.189,3.174 15.912,2.838 L 15.769,2.469 C 13.934,0.189 12.49,-2.271 11.046,-4.694 M -8.968,-8.858 c 1.159,1.612 2.461,3.173 3.905,4.689 1.251,1.184 2.41,2.322 3.762,3.178 1.255,-0.806 2.653,-1.477 3.858,-2.233 -1.495,-1.839 -3.036,-3.695 -4.148,-5.681 0.336,-0.146 0.966,-0.1 1.448,0 1.205,1.751 2.507,3.506 4.052,5.068 2.07,-0.76 4.097,-1.562 6.221,-2.133 l 0.189,-0.189 -1.204,-2.746 c 0.533,-0.1 0.869,-0.05 1.398,0 0.432,0.802 0.768,1.701 1.251,2.511 2.8,-0.621 5.743,-0.949 8.733,-1.041 0.385,-0.336 0.096,-1.045 0.239,-1.47 h 1.301 c 0.143,0.467 -0.046,0.995 0.143,1.415 2.8,0.147 5.739,0.433 8.447,1.096 l 0.235,-0.05 1.302,-2.461 c 0.437,0 1.012,-0.1 1.352,0.097 l -1.209,2.742 0.1,0.096 c 2.213,0.571 4.291,1.423 6.411,2.271 1.499,-1.561 2.893,-3.409 4.153,-5.206 0.528,0 1.057,-0.05 1.444,0.097 -0.58,1.037 -1.306,2.078 -2.074,2.985 -0.63,0.899 -1.302,1.7 -2.125,2.552 v 0.244 l 3.376,1.94 0.487,0.189 c 2.939,-2.226 5.541,-4.925 7.615,-7.91 0.579,0 1.063,-0.197 1.545,0.042 C 46.774,0.898 36.118,7.112 24.599,8.006 L 24.548,7.914 24.451,8.006 C 23.15,8.145 21.554,8.2 20.156,8.061 19.627,8.103 19.001,8.061 18.372,8.006 6.801,7.112 -3.854,1.184 -10.513,-8.905 c 0.483,0.047 1.062,-0.146 1.545,0.047" /></g><g
           transform="translate(208.1543,287.7803)"
           id="g36"><path
             id="path38"
             style="fill:#0054a6;fill-opacity:1;fill-rule:nonzero;stroke:none"
             d="m 0,0 c -4.534,-1.234 -9.455,-0.294 -12.733,3.123 -0.383,0.475 -0.626,1.037 -1.013,1.512 l -6.507,-0.047 c -0.101,-3.836 -0.147,-8.244 0,-12.036 l 7.23,0.046 0.096,2.275 c 0.823,-0.377 1.642,-0.852 2.461,-1.275 5.016,-2.087 11.474,-2.562 16.441,0 3.619,1.985 5.549,5.822 5.016,9.954 -0.528,4.022 -4.387,7.674 -8.291,8.665 l -11.672,3.367 -0.865,0.428 c -0.386,0.328 -0.629,0.752 -0.533,1.277 0.915,1.562 3.04,1.087 4.631,1.045 3.375,-0.475 6.847,-1.612 8.825,-4.694 2.12,0 4.58,-0.042 6.893,0.05 0.097,3.884 -0.041,7.293 -0.096,11.227 -2.17,0.05 -4.823,0.05 -6.99,-0.05 -0.097,-0.563 0.092,-1.365 -0.147,-1.936 l -2.217,1.184 c -5.307,2.225 -12.734,2.46 -17.553,-0.999 -3.137,-2.271 -4.098,-6.352 -3.279,-9.95 0.625,-3.409 3.904,-5.92 7.04,-7.104 C -8.972,4.547 -4.488,3.451 -0.143,1.986 0.29,1.793 0.865,1.364 0.772,0.844 0.772,0.424 0.336,0.18 0,0" /></g><g
           transform="translate(162.5688,276.8643)"
           id="g40"><path
             id="path42"
             style="fill:#0054a6;fill-opacity:1;fill-rule:nonzero;stroke:none"
             d="M 0,0 0.235,-0.541 C 0.277,-0.643 0.222,-0.76 0.113,-0.807 L -6.835,-3.808 C -6.936,-3.85 -7.053,-3.82 -7.1,-3.711 l -0.234,0.541 c -0.042,0.102 0,0.215 0.108,0.261 l 6.953,3.001 C -0.177,0.135 -0.046,0.109 0,0" /></g><g
           transform="translate(160.5112,282.4775)"
           id="g44"><path
             id="path46"
             style="fill:#0054a6;fill-opacity:1;fill-rule:nonzero;stroke:none"
             d="M 0,0 0.164,-0.486 C 0.202,-0.6 0.143,-0.723 0.03,-0.76 l -3.359,-1.134 c -1.028,-0.348 -1.226,-0.801 -0.966,-1.579 0.143,-0.427 0.47,-0.851 0.861,-1.242 l 4.308,1.453 c 0.1,0.037 0.234,-0.021 0.272,-0.134 l 0.168,-0.5 c 0.034,-0.1 -0.025,-0.223 -0.138,-0.26 l -5.202,-1.76 c -0.113,-0.037 -0.231,0.014 -0.269,0.127 l -0.172,0.508 c -0.037,0.113 0.026,0.226 0.139,0.263 l 0.193,0.069 c -0.508,0.453 -0.815,0.859 -1.016,1.461 -0.416,1.225 0.164,2.031 1.52,2.493 l 3.359,1.13 C -0.164,0.172 -0.038,0.113 0,0" /></g><g
           transform="translate(159.5586,286.4951)"
           id="g48"><path
             id="path50"
             style="fill:#0054a6;fill-opacity:1;fill-rule:nonzero;stroke:none"
             d="M 0,0 C 0.08,-0.201 0.168,-0.471 0.214,-0.668 0.44,-1.633 0.302,-2.149 -0.848,-2.426 l -3.653,-0.869 0.126,-1.041 C -4.358,-4.454 -4.4,-4.555 -4.518,-4.58 l -0.281,-0.067 c -0.113,-0.03 -0.205,0.038 -0.235,0.151 l -0.243,1.016 -1.025,-0.244 c -0.105,-0.025 -0.206,0.03 -0.252,0.139 l -0.214,0.524 c -0.004,0.009 -0.004,0.022 -0.008,0.03 -0.021,0.084 0.038,0.177 0.142,0.201 l 1.138,0.269 -0.269,1.133 c -0.025,0.114 0.047,0.232 0.16,0.257 l 0.357,0.084 c 0.113,0.029 0.231,-0.042 0.26,-0.159 l 0.269,-1.13 3.648,0.873 c 0.575,0.134 0.626,0.302 0.525,0.722 l -0.139,0.584 c -0.033,0.146 -0.008,0.23 0.097,0.256 l 0.365,0.087 C -0.13,0.168 -0.055,0.131 0,0" /></g><g
           transform="translate(155.4062,290.4756)"
           id="g52"><path
             id="path54"
             style="fill:#0054a6;fill-opacity:1;fill-rule:nonzero;stroke:none"
             d="m 0,0 c -1.205,-0.168 -1.608,-0.688 -1.478,-1.629 0.126,-0.916 0.718,-1.356 1.869,-1.197 l 0.096,0.013 -0.39,2.825 z m 0.709,0.856 0.492,-3.569 0.151,0.022 c 1.268,0.175 1.667,0.738 1.532,1.72 C 2.8,-0.354 2.645,0.432 2.506,0.91 2.502,0.932 2.498,0.944 2.498,0.965 2.485,1.049 2.515,1.142 2.624,1.154 L 2.985,1.205 C 3.124,1.226 3.203,1.192 3.258,1.028 3.459,0.437 3.606,-0.143 3.707,-0.856 3.875,-2.082 3.464,-3.354 1.482,-3.632 l -0.961,-0.13 c -1.524,-0.215 -2.607,0.495 -2.822,2.02 -0.214,1.556 0.655,2.48 2.171,2.691 L 0.445,1.028 C 0.583,1.045 0.688,0.986 0.709,0.856" /></g><g
           transform="translate(153.3911,295.0439)"
           id="g56"><path
             id="path58"
             style="fill:#0054a6;fill-opacity:1;fill-rule:nonzero;stroke:none"
             d="m 0,0 c 0.025,-0.496 0.176,-0.937 0.525,-1.457 l 4.496,0.234 c 0.105,0.004 0.218,-0.088 0.223,-0.205 l 0.029,-0.525 c 0.004,-0.11 -0.088,-0.21 -0.206,-0.214 l -5.47,-0.286 c -0.118,-0.004 -0.219,0.076 -0.222,0.193 l -0.026,0.504 c -0.008,0.117 0.084,0.21 0.202,0.215 l 0.226,0.012 c -0.402,0.516 -0.57,1.004 -0.596,1.486 -0.004,0.151 0.055,0.227 0.185,0.235 l 0.437,0.021 C -0.08,0.222 -0.008,0.15 0,0" /></g><g
           transform="translate(158.6768,300.644)"
           id="g60"><path
             id="path62"
             style="fill:#0054a6;fill-opacity:1;fill-rule:nonzero;stroke:none"
             d="m 0,0 -0.021,-0.517 c -0.004,-0.117 -0.105,-0.21 -0.223,-0.205 l -3.53,0.142 c -1.083,0.042 -1.432,-0.31 -1.461,-1.125 -0.021,-0.449 0.13,-0.961 0.361,-1.465 l 4.525,-0.181 c 0.105,-0.003 0.21,-0.105 0.206,-0.222 l -0.021,-0.525 c -0.004,-0.109 -0.105,-0.201 -0.222,-0.193 l -5.47,0.214 c -0.118,0.004 -0.21,0.097 -0.206,0.214 l 0.02,0.538 c 0.005,0.117 0.105,0.197 0.223,0.193 l 0.202,-0.009 c -0.307,0.605 -0.449,1.092 -0.425,1.726 0.051,1.289 0.878,1.834 2.306,1.776 L -0.21,0.222 C -0.088,0.218 0.004,0.117 0,0" /></g><g
           transform="translate(156.4434,305.5977)"
           id="g64"><path
             id="path66"
             style="fill:#0054a6;fill-opacity:1;fill-rule:nonzero;stroke:none"
             d="m 0,0 -0.118,-0.785 c -0.189,-1.285 0.047,-1.667 0.802,-1.78 L 0.81,-2.582 c 0.764,-0.113 1.021,0.214 1.113,0.832 0.071,0.491 -0.013,0.948 -0.215,1.499 z M 2.935,0.307 2.859,-0.185 C 2.842,-0.302 2.733,-0.382 2.615,-0.365 L 2.38,-0.332 C 2.603,-0.886 2.75,-1.448 2.662,-2.044 2.527,-2.947 2.011,-3.715 0.684,-3.522 l -0.13,0.021 c -1.146,0.168 -1.62,0.923 -1.344,2.817 l 0.118,0.785 -0.424,0.063 c -0.894,0.13 -1.247,-0.13 -1.368,-0.957 -0.105,-0.693 -0.135,-1.209 -0.156,-1.642 -0.004,-0.021 -0.004,-0.029 -0.008,-0.05 -0.017,-0.097 -0.063,-0.189 -0.198,-0.168 l -0.373,0.054 c -0.118,0.017 -0.168,0.101 -0.168,0.252 -0.013,0.45 -0.005,0.949 0.105,1.671 0.218,1.474 1.05,1.961 2.304,1.776 L 2.75,0.55 C 2.867,0.533 2.951,0.424 2.935,0.307" /></g><g
           transform="translate(160.3228,309.8716)"
           id="g68"><path
             id="path70"
             style="fill:#0054a6;fill-opacity:1;fill-rule:nonzero;stroke:none"
             d="M 0,0 C -0.017,-0.214 -0.063,-0.491 -0.109,-0.692 -0.34,-1.654 -0.701,-2.053 -1.852,-1.78 l -3.652,0.869 -0.357,-0.986 c -0.038,-0.114 -0.118,-0.181 -0.235,-0.156 l -0.281,0.067 c -0.118,0.03 -0.168,0.131 -0.143,0.244 l 0.243,1.016 -1.024,0.244 c -0.105,0.024 -0.172,0.121 -0.164,0.239 l 0.042,0.562 c 0.005,0.013 0.008,0.021 0.008,0.034 0.021,0.084 0.114,0.138 0.215,0.113 l 1.141,-0.268 0.269,1.129 c 0.03,0.113 0.147,0.185 0.261,0.159 L -5.172,1.398 C -5.059,1.373 -4.988,1.255 -5.013,1.142 L -5.282,0.013 -1.633,-0.86 c 0.575,-0.135 0.696,-0.009 0.793,0.411 l 0.143,0.584 c 0.033,0.146 0.092,0.209 0.197,0.184 L -0.135,0.231 C -0.038,0.21 0.012,0.143 0,0" /></g><g
           transform="translate(160.8389,311.6226)"
           id="g72"><path
             id="path74"
             style="fill:#0054a6;fill-opacity:1;fill-rule:nonzero;stroke:none"
             d="M 0,0 -0.151,-0.491 C -0.185,-0.604 -0.307,-0.667 -0.42,-0.634 L -5.655,0.97 c -0.114,0.037 -0.177,0.155 -0.143,0.268 l 0.152,0.496 c 0.037,0.113 0.155,0.176 0.268,0.142 L -0.143,0.269 C -0.029,0.235 0.038,0.113 0,0 M -6.541,2.032 -6.701,1.507 C -6.738,1.394 -6.856,1.331 -6.969,1.364 L -7.792,1.616 C -7.905,1.65 -7.968,1.771 -7.935,1.885 l 0.16,0.525 c 0.038,0.113 0.155,0.176 0.269,0.143 L -6.684,2.301 C -6.57,2.263 -6.507,2.146 -6.541,2.032" /></g><g
           transform="translate(159.5078,317.7354)"
           id="g76"><path
             id="path78"
             style="fill:#0054a6;fill-opacity:1;fill-rule:nonzero;stroke:none"
             d="m 0,0 c -1.016,0.407 -1.826,0.256 -2.2,-0.68 -0.369,-0.928 0.105,-1.591 1.134,-2.003 l 0.755,-0.298 c 1.017,-0.407 1.827,-0.265 2.201,0.672 0.365,0.928 -0.105,1.6 -1.134,2.007 z M 2.654,-2.616 C 2.07,-4.081 0.806,-4.442 -0.659,-3.858 l -0.756,0.298 c -1.469,0.583 -2.137,1.717 -1.553,3.182 0.584,1.465 1.851,1.839 3.317,1.255 L 1.108,0.575 C 2.574,-0.008 3.237,-1.15 2.654,-2.616" /></g><g
           transform="translate(165.4487,322.0806)"
           id="g80"><path
             id="path82"
             style="fill:#0054a6;fill-opacity:1;fill-rule:nonzero;stroke:none"
             d="M 0,0 -0.244,-0.454 C -0.298,-0.559 -0.433,-0.596 -0.533,-0.542 L -3.652,1.129 C -4.61,1.646 -5.076,1.478 -5.462,0.76 -5.676,0.361 -5.764,-0.168 -5.781,-0.718 l 4.001,-2.145 c 0.092,-0.051 0.143,-0.189 0.088,-0.294 l -0.252,-0.462 c -0.05,-0.096 -0.181,-0.134 -0.285,-0.08 l -4.833,2.595 c -0.105,0.054 -0.151,0.176 -0.092,0.281 l 0.252,0.474 c 0.059,0.101 0.185,0.135 0.285,0.076 l 0.181,-0.097 c -0.013,0.681 0.076,1.184 0.374,1.743 0.608,1.138 1.595,1.268 2.854,0.592 l 3.12,-1.671 C 0.017,0.235 0.055,0.105 0,0" /></g><g
           transform="translate(165.5791,327.4673)"
           id="g84"><path
             id="path86"
             style="fill:#0054a6;fill-opacity:1;fill-rule:nonzero;stroke:none"
             d="m 0,0 -0.449,-0.655 c -0.731,-1.071 -0.689,-1.52 -0.059,-1.952 l 0.105,-0.072 c 0.638,-0.436 1.011,-0.252 1.364,0.265 0.282,0.407 0.408,0.852 0.466,1.435 z M 2.771,-1.012 2.489,-1.419 C 2.422,-1.516 2.288,-1.541 2.191,-1.474 l -0.193,0.13 C 1.956,-1.936 1.839,-2.507 1.499,-3.002 0.982,-3.758 0.18,-4.224 -0.928,-3.464 l -0.105,0.071 c -0.957,0.655 -1.054,1.541 0.03,3.12 l 0.449,0.655 -0.357,0.243 c -0.743,0.508 -1.176,0.429 -1.65,-0.264 -0.395,-0.575 -0.651,-1.025 -0.856,-1.403 -0.013,-0.016 -0.018,-0.024 -0.03,-0.041 -0.054,-0.08 -0.138,-0.143 -0.252,-0.063 l -0.311,0.209 c -0.096,0.068 -0.109,0.168 -0.042,0.303 0.189,0.407 0.416,0.848 0.827,1.452 0.844,1.23 1.802,1.302 2.847,0.584 l 3.094,-2.116 c 0.097,-0.067 0.122,-0.202 0.055,-0.298" /></g><g
           transform="translate(169.7812,328.252)"
           id="g88"><path
             id="path90"
             style="fill:#0054a6;fill-opacity:1;fill-rule:nonzero;stroke:none"
             d="m 0,0 -0.353,-0.437 c -0.066,-0.084 -0.192,-0.092 -0.285,-0.016 l -5.987,4.794 c -0.084,0.068 -0.113,0.185 -0.042,0.277 l 0.353,0.437 c 0.067,0.084 0.185,0.096 0.277,0.025 L -0.05,0.286 C 0.034,0.218 0.072,0.093 0,0" /></g><g
           transform="translate(172.6113,337.9546)"
           id="g92"><path
             id="path94"
             style="fill:#0054a6;fill-opacity:1;fill-rule:nonzero;stroke:none"
             d="m 0,0 c -1.234,1.318 -2.238,1.318 -3.099,0.512 -0.856,-0.802 -0.932,-1.818 0.303,-3.136 l 0.944,-1.012 c 1.235,-1.314 2.247,-1.31 3.111,-0.499 0.852,0.797 0.924,1.809 -0.31,3.123 z m 1.86,-4.782 c -1.231,-1.15 -2.8,-1.268 -4.43,0.47 L -3.519,-3.3 C -5.151,-1.558 -4.933,0 -3.703,1.154 -2.469,2.309 -0.907,2.418 0.722,0.676 L 1.671,-0.336 C 3.3,-2.074 3.09,-3.627 1.86,-4.782" /></g><g
           transform="translate(176.2344,341.4517)"
           id="g96"><path
             id="path98"
             style="fill:#0054a6;fill-opacity:1;fill-rule:nonzero;stroke:none"
             d="M 0,0 C -0.395,-0.302 -0.672,-0.676 -0.903,-1.259 L 1.831,-4.832 C 1.897,-4.916 1.885,-5.063 1.792,-5.134 L 1.373,-5.454 C 1.289,-5.521 1.154,-5.5 1.079,-5.407 l -3.325,4.349 c -0.076,0.093 -0.063,0.223 0.029,0.294 l 0.399,0.306 c 0.097,0.072 0.222,0.051 0.294,-0.046 l 0.138,-0.176 c 0.198,0.621 0.504,1.033 0.89,1.326 0.118,0.093 0.219,0.089 0.294,-0.016 L 0.067,0.281 C 0.139,0.189 0.118,0.092 0,0" /></g><g
           transform="translate(183.3755,339.5122)"
           id="g100"><path
             id="path102"
             style="fill:#0054a6;fill-opacity:1;fill-rule:nonzero;stroke:none"
             d="m 0,0 c -0.227,0.357 -0.608,0.315 -1.553,0.004 l -1.193,-0.39 c -0.117,-0.395 -0.155,-0.735 0.147,-1.205 l 0.051,-0.084 c 0.323,-0.504 0.822,-0.63 1.83,0.008 1.033,0.659 1.083,1.1 0.764,1.596 z M -2.439,3.669 C -2.783,4.211 -3.3,4.479 -4.278,3.858 -5.294,3.211 -5.206,2.615 -4.882,2.107 l 0.046,-0.071 c 0.252,-0.399 0.768,-0.806 1.809,-0.142 0.978,0.621 0.983,1.158 0.634,1.7 z M -2.267,5.176 -2.552,4.908 C -2.279,4.836 -1.965,4.66 -1.65,4.169 L -1.604,4.098 C -0.97,3.103 -1.234,2.158 -2.628,1.268 -3.106,0.961 -3.463,0.839 -3.795,0.781 -3.9,0.609 -3.909,0.462 -3.825,0.327 -3.724,0.172 -3.602,0.139 -3.358,0.218 l 1.57,0.512 C -0.76,1.07 0.256,1.36 0.798,0.508 L 0.844,0.437 c 0.554,-0.87 0.315,-1.772 -1.171,-2.717 -1.428,-0.915 -2.435,-0.777 -2.998,0.11 l -0.054,0.083 c -0.324,0.504 -0.315,1.096 -0.16,1.512 l -0.084,-0.013 c -0.37,-0.058 -0.684,0.16 -0.865,0.441 l -0.004,0.008 c -0.159,0.244 -0.206,0.584 -0.046,0.89 -0.449,0.08 -0.794,0.319 -1.087,0.781 l -0.047,0.076 c -0.512,0.806 -0.567,1.889 0.991,2.884 l 1.982,1.264 c 0.109,0.067 0.264,0.042 0.336,-0.068 L -2.217,5.454 C -2.141,5.336 -2.179,5.26 -2.267,5.176" /></g><g
           transform="translate(186.3521,344.7515)"
           id="g104"><path
             id="path106"
             style="fill:#0054a6;fill-opacity:1;fill-rule:nonzero;stroke:none"
             d="m 0,0 -0.713,-0.348 c -1.168,-0.575 -1.344,-0.991 -1.008,-1.675 l 0.059,-0.114 c 0.34,-0.696 0.76,-0.717 1.318,-0.441 0.445,0.219 0.773,0.55 1.113,1.029 z M 1.923,-2.242 1.478,-2.46 C 1.373,-2.51 1.243,-2.468 1.192,-2.359 l -0.105,0.21 C 0.756,-2.645 0.374,-3.085 -0.167,-3.354 -0.986,-3.757 -1.914,-3.77 -2.506,-2.565 l -0.059,0.113 c -0.512,1.041 -0.164,1.865 1.553,2.708 l 0.714,0.353 -0.189,0.386 C -0.89,1.806 -1.306,1.948 -2.057,1.575 -2.683,1.268 -3.127,1 -3.493,0.772 -3.514,0.76 -3.522,0.756 -3.543,0.748 -3.631,0.706 -3.732,0.688 -3.791,0.814 l -0.168,0.341 c -0.054,0.105 -0.012,0.197 0.114,0.281 0.361,0.265 0.776,0.542 1.431,0.865 1.339,0.659 2.213,0.252 2.775,-0.886 L 2.02,-1.952 c 0.054,-0.105 0.008,-0.235 -0.097,-0.29" /></g><g
           transform="translate(193.6113,344.5586)"
           id="g108"><path
             id="path110"
             style="fill:#0054a6;fill-opacity:1;fill-rule:nonzero;stroke:none"
             d="m 0,0 -0.487,-0.176 c -0.109,-0.038 -0.235,0.016 -0.273,0.13 l -1.209,3.32 C -2.338,4.295 -2.796,4.484 -3.564,4.207 -3.989,4.051 -4.404,3.715 -4.786,3.316 l 1.549,-4.265 c 0.038,-0.101 -0.017,-0.235 -0.126,-0.273 l -0.495,-0.18 c -0.101,-0.038 -0.227,0.021 -0.265,0.13 L -6,3.883 c -0.037,0.11 0.009,0.231 0.118,0.269 l 0.508,0.185 c 0.109,0.042 0.223,-0.021 0.265,-0.13 l 0.071,-0.193 c 0.441,0.516 0.84,0.831 1.436,1.049 1.213,0.441 2.032,-0.122 2.523,-1.465 L 0.13,0.277 C 0.168,0.164 0.109,0.042 0,0" /></g><g
           transform="translate(195.832,345.1587)"
           id="g112"><path
             id="path114"
             style="fill:#0054a6;fill-opacity:1;fill-rule:nonzero;stroke:none"
             d="m 0,0 -0.5,-0.134 c -0.113,-0.034 -0.23,0.038 -0.264,0.151 L -2.2,5.303 c -0.033,0.113 0.034,0.231 0.151,0.264 l 0.496,0.135 C -1.44,5.731 -1.322,5.664 -1.289,5.55 L 0.147,0.265 C 0.181,0.151 0.113,0.03 0,0 M -1.78,6.617 -2.309,6.474 C -2.422,6.445 -2.544,6.512 -2.573,6.625 L -2.8,7.457 c -0.03,0.113 0.038,0.23 0.151,0.26 l 0.529,0.147 c 0.113,0.029 0.235,-0.038 0.265,-0.152 L -1.629,6.881 C -1.6,6.768 -1.667,6.65 -1.78,6.617" /></g><g
           transform="translate(200.9668,346.2798)"
           id="g116"><path
             id="path118"
             style="fill:#0054a6;fill-opacity:1;fill-rule:nonzero;stroke:none"
             d="m 0,0 -3.191,-0.625 c -0.453,-0.089 -0.701,0.159 -0.76,0.457 l -0.037,0.202 c -0.059,0.294 -0.026,0.466 0.109,0.73 l 2.061,3.925 c 0.013,0.034 0.029,0.072 0.025,0.102 -0.008,0.045 -0.038,0.071 -0.122,0.054 l -2.564,-0.5 C -4.597,4.32 -4.71,4.396 -4.736,4.513 l -0.067,0.362 c -0.025,0.113 0.054,0.226 0.168,0.251 l 3.107,0.605 c 0.432,0.088 0.63,-0.084 0.693,-0.399 l 0.05,-0.256 c 0.042,-0.219 0,-0.395 -0.131,-0.626 L -3.015,0.433 C -3.048,0.382 -3.052,0.336 -3.044,0.302 -3.036,0.252 -3.019,0.223 -2.943,0.235 l 2.788,0.546 C -0.038,0.806 0.076,0.727 0.097,0.613 L 0.168,0.252 C 0.189,0.139 0.113,0.021 0,0" /></g><g
           transform="translate(205.0054,349.5884)"
           id="g120"><path
             id="path122"
             style="fill:#0054a6;fill-opacity:1;fill-rule:nonzero;stroke:none"
             d="M 0,0 -0.789,-0.076 C -2.086,-0.193 -2.401,-0.512 -2.33,-1.272 l 0.013,-0.13 c 0.071,-0.769 0.453,-0.937 1.07,-0.882 0.492,0.046 0.92,0.235 1.407,0.562 z M 0.991,-2.779 0.496,-2.826 c -0.118,-0.008 -0.223,0.08 -0.231,0.198 l -0.021,0.235 c -0.487,-0.349 -0.999,-0.622 -1.6,-0.676 -0.911,-0.084 -1.78,0.235 -1.902,1.57 l -0.013,0.13 c -0.104,1.155 0.513,1.793 2.419,1.969 L -0.063,0.671 -0.101,1.1 C -0.185,1.998 -0.521,2.279 -1.356,2.204 -2.053,2.141 -2.561,2.048 -2.985,1.969 -3.006,1.964 -3.019,1.964 -3.04,1.96 -3.136,1.952 -3.232,1.977 -3.245,2.116 l -0.034,0.373 c -0.013,0.118 0.055,0.189 0.206,0.223 0.428,0.118 0.915,0.226 1.641,0.294 C 0.055,3.14 0.722,2.447 0.84,1.188 L 1.184,-2.544 C 1.192,-2.662 1.108,-2.767 0.991,-2.779" /></g><g
           transform="translate(210.1147,346.855)"
           id="g124"><path
             id="path126"
             style="fill:#0054a6;fill-opacity:1;fill-rule:nonzero;stroke:none"
             d="M 0,0 C -0.218,-0.034 -0.495,-0.063 -0.701,-0.063 -1.692,-0.08 -2.166,0.172 -2.187,1.356 L -2.242,5.109 -3.287,5.21 c -0.118,0.013 -0.206,0.076 -0.21,0.193 l -0.004,0.29 c 0,0.118 0.084,0.193 0.201,0.197 l 1.046,0.017 -0.017,1.054 c 0,0.105 0.071,0.193 0.189,0.218 l 0.558,0.092 H -1.49 C -1.402,7.276 -1.327,7.2 -1.327,7.091 L -1.31,5.92 -0.147,5.937 C -0.029,5.941 0.072,5.844 0.072,5.727 L 0.08,5.361 C 0.08,5.244 -0.017,5.143 -0.134,5.143 L -1.297,5.122 -1.238,1.369 C -1.23,0.777 -1.079,0.693 -0.646,0.701 l 0.6,0.008 C 0.105,0.714 0.181,0.672 0.185,0.562 L 0.189,0.185 C 0.189,0.088 0.139,0.025 0,0" /></g><g
           transform="translate(212.4072,353.5977)"
           id="g128"><path
             id="path130"
             style="fill:#0054a6;fill-opacity:1;fill-rule:nonzero;stroke:none"
             d="M 0,0 -0.55,0.034 C -0.667,0.038 -0.756,0.143 -0.751,0.26 l 0.05,0.857 c 0.009,0.117 0.109,0.21 0.226,0.201 L 0.076,1.289 C 0.193,1.28 0.281,1.18 0.277,1.062 L 0.227,0.202 C 0.219,0.084 0.118,-0.008 0,0 m -0.42,-6.843 -0.516,0.033 c -0.118,0.004 -0.206,0.109 -0.202,0.227 l 0.32,5.47 c 0.008,0.118 0.109,0.206 0.226,0.202 l 0.517,-0.029 c 0.117,-0.009 0.206,-0.11 0.201,-0.231 l -0.318,-5.467 c -0.009,-0.121 -0.11,-0.21 -0.228,-0.205" /></g><g
           transform="translate(217.5879,349.5337)"
           id="g132"><path
             id="path134"
             style="fill:#0054a6;fill-opacity:1;fill-rule:nonzero;stroke:none"
             d="M 0,0 C 0.147,1.087 -0.192,1.839 -1.196,1.978 -2.187,2.107 -2.716,1.486 -2.867,0.39 l -0.11,-0.81 c -0.146,-1.087 0.185,-1.839 1.189,-1.977 0.991,-0.13 1.532,0.491 1.68,1.586 z m -1.897,-3.216 c -1.571,0.214 -2.23,1.356 -2.015,2.922 l 0.108,0.81 c 0.21,1.566 1.151,2.494 2.717,2.28 C 0.483,2.582 1.15,1.44 0.94,-0.126 L 0.832,-0.937 C 0.617,-2.502 -0.331,-3.43 -1.897,-3.216" /></g><g
           transform="translate(223.2305,344.8022)"
           id="g136"><path
             id="path138"
             style="fill:#0054a6;fill-opacity:1;fill-rule:nonzero;stroke:none"
             d="M 0,0 -0.499,0.126 C -0.617,0.155 -0.684,0.272 -0.654,0.39 l 0.873,3.43 c 0.268,1.054 -0.004,1.466 -0.798,1.671 -0.437,0.11 -0.97,0.068 -1.512,-0.05 l -1.12,-4.4 C -3.236,0.936 -3.358,0.856 -3.472,0.886 l -0.511,0.13 c -0.106,0.025 -0.173,0.143 -0.148,0.256 l 1.357,5.319 c 0.029,0.118 0.138,0.189 0.252,0.159 l 0.52,-0.134 C -1.885,6.591 -1.826,6.474 -1.855,6.36 l -0.05,-0.197 c 0.654,0.176 1.162,0.214 1.779,0.055 C 1.126,5.898 1.491,4.975 1.138,3.585 L 0.261,0.155 C 0.231,0.042 0.113,-0.03 0,0" /></g><g
           transform="translate(232.3408,349.3154)"
           id="g140"><path
             id="path142"
             style="fill:#0054a6;fill-opacity:1;fill-rule:nonzero;stroke:none"
             d="M 0,0 -0.479,0.197 C -0.944,0.39 -1.142,0.311 -1.364,-0.235 l -0.298,-0.718 1.045,-0.428 c 0.109,-0.047 0.156,-0.16 0.114,-0.261 l -0.16,-0.386 C -0.705,-2.129 -0.81,-2.162 -0.919,-2.12 l -1.046,0.432 -1.868,-4.534 c -0.042,-0.097 -0.172,-0.16 -0.272,-0.118 l -0.488,0.202 c -0.109,0.042 -0.155,0.18 -0.117,0.277 l 1.872,4.534 -0.919,0.508 c -0.105,0.055 -0.155,0.155 -0.118,0.256 l 0.113,0.269 c 0.042,0.097 0.152,0.143 0.261,0.101 l 0.966,-0.399 0.294,0.714 c 0.44,1.066 1.087,1.171 1.96,0.81 C -0.012,0.818 0.135,0.726 0.252,0.642 0.349,0.566 0.412,0.495 0.378,0.403 L 0.239,0.075 C 0.197,-0.034 0.109,-0.042 0,0" /></g><g
           transform="translate(234.957,343.4502)"
           id="g144"><path
             id="path146"
             style="fill:#0054a6;fill-opacity:1;fill-rule:nonzero;stroke:none"
             d="M 0,0 C 0.508,0.97 0.44,1.792 -0.454,2.263 -1.335,2.725 -2.045,2.322 -2.562,1.343 L -2.939,0.617 c -0.508,-0.97 -0.45,-1.788 0.445,-2.254 0.882,-0.467 1.599,-0.063 2.116,0.915 z m -2.88,-2.372 c -1.398,0.735 -1.629,2.032 -0.894,3.43 l 0.378,0.722 c 0.734,1.398 1.93,1.948 3.329,1.213 1.398,-0.73 1.637,-2.032 0.902,-3.43 L 0.457,-1.163 c -0.734,-1.398 -1.939,-1.94 -3.337,-1.209" /></g><g
           transform="translate(239.9189,342.5015)"
           id="g148"><path
             id="path150"
             style="fill:#0054a6;fill-opacity:1;fill-rule:nonzero;stroke:none"
             d="m 0,0 c -0.415,0.264 -0.86,0.403 -1.486,0.42 l -2.435,-3.779 c -0.058,-0.088 -0.197,-0.13 -0.294,-0.063 l -0.445,0.281 c -0.088,0.059 -0.117,0.194 -0.055,0.294 l 2.96,4.597 c 0.068,0.102 0.19,0.135 0.29,0.072 L -1.041,1.549 C -0.94,1.486 -0.923,1.356 -0.986,1.259 L -1.108,1.07 C -0.453,1.096 0.038,0.944 0.441,0.684 0.567,0.604 0.597,0.508 0.529,0.399 L 0.29,0.029 C 0.227,-0.071 0.126,-0.084 0,0" /></g><g
           transform="translate(241.3799,334.7891)"
           id="g152"><path
             id="path154"
             style="fill:#0054a6;fill-opacity:1;fill-rule:nonzero;stroke:none"
             d="M 0,0 C -0.566,0.491 -0.94,0.915 -1.251,1.28 -1.368,1.423 -1.355,1.469 -1.28,1.562 l 0.281,0.323 c 0.08,0.088 0.177,0.075 0.252,0.012 C -0.738,1.889 -0.73,1.881 -0.722,1.876 -0.378,1.52 0.202,0.991 0.575,0.667 1.554,-0.176 2.15,-0.008 2.642,0.562 2.994,0.965 2.952,1.398 2.607,2.494 L 2.229,3.652 C 1.877,4.757 1.86,5.491 2.423,6.142 3.271,7.129 4.371,6.973 5.609,5.907 6.088,5.491 6.672,4.904 6.94,4.589 7.008,4.5 7.028,4.413 6.957,4.329 L 6.654,3.98 C 6.588,3.9 6.487,3.9 6.407,3.967 6.398,3.976 6.398,3.976 6.391,3.984 6.05,4.316 5.505,4.832 5.034,5.239 4.194,5.961 3.683,6.092 3.17,5.5 2.839,5.113 2.91,4.656 3.208,3.749 L 3.569,2.653 C 4.026,1.28 3.977,0.546 3.414,-0.105 2.742,-0.886 1.604,-1.381 0,0" /></g><g
           transform="translate(245.9062,330.54)"
           id="g156"><path
             id="path158"
             style="fill:#0054a6;fill-opacity:1;fill-rule:nonzero;stroke:none"
             d="M 0,0 C -0.172,0.13 -0.382,0.315 -0.525,0.462 -1.218,1.167 -1.36,1.684 -0.517,2.511 L 2.162,5.135 1.516,5.962 C 1.439,6.05 1.428,6.159 1.512,6.243 L 1.721,6.445 C 1.805,6.529 1.919,6.516 1.998,6.432 L 2.729,5.689 3.48,6.424 C 3.556,6.499 3.674,6.508 3.77,6.436 L 4.224,6.096 C 4.228,6.092 4.236,6.083 4.244,6.075 4.303,6.012 4.303,5.907 4.228,5.832 L 3.388,5.013 4.202,4.186 C 4.282,4.102 4.282,3.963 4.198,3.879 L 3.938,3.624 C 3.854,3.543 3.716,3.543 3.632,3.627 L 2.821,4.459 0.143,1.835 C -0.277,1.423 -0.235,1.255 0.067,0.949 L 0.487,0.521 C 0.592,0.412 0.613,0.328 0.537,0.252 L 0.269,-0.012 C 0.197,-0.08 0.113,-0.084 0,0" /></g><g
           transform="translate(250.7803,329.2134)"
           id="g160"><path
             id="path162"
             style="fill:#0054a6;fill-opacity:1;fill-rule:nonzero;stroke:none"
             d="M 0,0 -0.504,0.613 C -1.322,1.625 -1.768,1.705 -2.355,1.226 L -2.456,1.142 C -3.057,0.655 -2.985,0.244 -2.59,-0.243 c 0.311,-0.382 0.705,-0.63 1.251,-0.853 z m -1.755,-2.376 -0.31,0.386 c -0.076,0.093 -0.064,0.227 0.029,0.303 l 0.184,0.146 c -0.558,0.21 -1.074,0.487 -1.452,0.954 -0.58,0.705 -0.801,1.608 0.24,2.456 l 0.1,0.084 c 0.902,0.73 1.78,0.575 2.985,-0.911 L 0.525,0.424 0.86,0.697 C 1.558,1.268 1.604,1.705 1.075,2.355 0.634,2.897 0.273,3.271 -0.033,3.577 -0.046,3.594 -0.05,3.603 -0.067,3.619 -0.126,3.695 -0.164,3.787 -0.055,3.875 l 0.29,0.24 C 0.327,4.19 0.424,4.173 0.537,4.068 0.873,3.774 1.238,3.43 1.7,2.868 2.641,1.709 2.439,0.764 1.457,-0.033 l -2.909,-2.372 c -0.093,-0.076 -0.228,-0.059 -0.303,0.029" /></g><g
           transform="translate(252.166,322.1519)"
           id="g164"><path
             id="path166"
             style="fill:#0054a6;fill-opacity:1;fill-rule:nonzero;stroke:none"
             d="M 0,0 -0.277,0.433 C -0.345,0.529 -0.315,0.664 -0.214,0.73 L 2.754,2.649 C 3.665,3.241 3.745,3.728 3.3,4.413 3.057,4.791 2.637,5.122 2.162,5.403 L -1.646,2.939 C -1.734,2.88 -1.877,2.901 -1.944,3.002 l -0.285,0.441 c -0.059,0.092 -0.03,0.226 0.071,0.289 L 2.439,6.709 C 2.54,6.772 2.67,6.755 2.733,6.654 L 3.022,6.205 C 3.09,6.104 3.052,5.979 2.955,5.916 L 2.783,5.807 C 3.384,5.492 3.782,5.172 4.127,4.639 4.828,3.556 4.467,2.632 3.267,1.856 L 0.298,-0.067 C 0.201,-0.13 0.067,-0.101 0,0" /></g><g
           transform="translate(258.9336,320.1577)"
           id="g168"><path
             id="path170"
             style="fill:#0054a6;fill-opacity:1;fill-rule:nonzero;stroke:none"
             d="M 0,0 C -0.101,0.349 -0.34,0.852 -0.495,1.159 -0.966,2.104 -1.704,2.116 -2.733,1.604 L -3.422,1.259 c -1.05,-0.52 -1.486,-1.112 -1.012,-2.061 0.16,-0.327 0.424,-0.785 0.618,-1.095 z m -4.131,-2.859 c -0.412,0.537 -0.752,1.1 -1.046,1.688 -0.714,1.431 -0.109,2.556 1.331,3.278 l 0.693,0.345 c 1.507,0.751 2.7,0.479 3.396,-0.924 C 0.395,1.23 0.592,0.764 0.71,0.357 l 1.788,0.89 C 2.595,1.293 2.717,1.259 2.771,1.155 L 3.015,0.664 C 3.064,0.571 3.022,0.454 2.918,0.403 l -6.726,-3.355 c -0.126,-0.062 -0.206,-0.067 -0.323,0.093" /></g><g
           transform="translate(259.0684,313.9653)"
           id="g172"><path
             id="path174"
             style="fill:#0054a6;fill-opacity:1;fill-rule:nonzero;stroke:none"
             d="M 0,0 -0.277,0.747 C -0.73,1.965 -1.121,2.183 -1.839,1.918 L -1.957,1.876 C -2.684,1.604 -2.746,1.192 -2.532,0.608 -2.36,0.143 -2.066,-0.214 -1.625,-0.601 Z M -2.427,-1.68 -2.6,-1.218 c -0.042,0.114 0.018,0.236 0.126,0.278 l 0.223,0.084 c -0.462,0.377 -0.86,0.801 -1.07,1.364 -0.315,0.856 -0.236,1.78 1.024,2.25 L -2.175,2.8 C -1.088,3.208 -0.312,2.775 0.356,0.982 L 0.634,0.235 1.036,0.386 C 1.881,0.701 2.065,1.1 1.771,1.885 1.527,2.54 1.31,3.006 1.12,3.396 1.112,3.417 1.108,3.426 1.1,3.447 1.066,3.535 1.066,3.64 1.196,3.686 l 0.353,0.13 C 1.658,3.858 1.746,3.812 1.817,3.678 2.04,3.292 2.275,2.851 2.527,2.166 3.048,0.764 2.552,-0.059 1.364,-0.5 L -2.15,-1.806 c -0.109,-0.042 -0.235,0.017 -0.277,0.126" /></g><g
           transform="translate(262.6572,309.9937)"
           id="g176"><path
             id="path178"
             style="fill:#0054a6;fill-opacity:1;fill-rule:nonzero;stroke:none"
             d="M 0,0 C -0.134,0.474 -0.378,0.877 -0.831,1.31 L -5.172,0.113 C -5.277,0.084 -5.407,0.151 -5.437,0.264 l -0.142,0.508 c -0.025,0.105 0.042,0.223 0.155,0.252 l 5.285,1.457 C -0.025,2.515 0.093,2.456 0.122,2.343 L 0.257,1.855 C 0.29,1.742 0.219,1.633 0.105,1.6 L -0.113,1.541 C 0.391,1.121 0.659,0.684 0.785,0.218 0.827,0.071 0.785,-0.017 0.659,-0.055 L 0.235,-0.168 C 0.122,-0.202 0.038,-0.147 0,0" /></g><g
           transform="translate(263.4844,305.5098)"
           id="g180"><path
             id="path182"
             style="fill:#0054a6;fill-opacity:1;fill-rule:nonzero;stroke:none"
             d="M 0,0 C -0.004,0.361 -0.097,0.915 -0.159,1.251 -0.353,2.288 -1.058,2.506 -2.188,2.292 L -2.947,2.154 C -4.102,1.939 -4.681,1.49 -4.488,0.445 c 0.067,-0.361 0.193,-0.873 0.294,-1.226 z m -4.761,-1.616 c -0.248,0.629 -0.42,1.263 -0.542,1.91 -0.293,1.574 0.597,2.494 2.18,2.788 l 0.764,0.142 C -0.701,3.531 0.37,2.943 0.655,1.402 0.718,1.075 0.777,0.575 0.781,0.147 L 2.746,0.512 C 2.851,0.533 2.96,0.466 2.981,0.348 L 3.082,-0.189 C 3.103,-0.294 3.035,-0.395 2.918,-0.416 l -7.394,-1.377 c -0.138,-0.025 -0.217,-0.008 -0.285,0.177" /></g><g
           transform="translate(265.6758,302.3188)"
           id="g184"><path
             id="path186"
             style="fill:#0054a6;fill-opacity:1;fill-rule:nonzero;stroke:none"
             d="M 0,0 -0.059,0.546 C -0.071,0.664 0.018,0.769 0.135,0.781 L 0.991,0.869 C 1.108,0.882 1.214,0.798 1.227,0.68 L 1.281,0.134 C 1.293,0.017 1.209,-0.092 1.092,-0.105 L 0.235,-0.193 C 0.118,-0.206 0.013,-0.118 0,0 m -6.826,-0.692 -0.051,0.516 c -0.012,0.117 0.071,0.222 0.19,0.235 l 5.453,0.566 c 0.118,0.013 0.222,-0.071 0.235,-0.188 l 0.055,-0.517 c 0.012,-0.117 -0.076,-0.222 -0.194,-0.235 l -5.449,-0.566 c -0.117,-0.013 -0.226,0.071 -0.239,0.189" /></g><g
           transform="translate(259.127,296.3574)"
           id="g188"><path
             id="path190"
             style="fill:#0054a6;fill-opacity:1;fill-rule:nonzero;stroke:none"
             d="M 0,0 -0.097,3.245 C -0.113,3.711 0.172,3.913 0.475,3.921 L 0.68,3.925 C 0.978,3.938 1.142,3.875 1.385,3.703 l 3.54,-2.67 C 4.958,1.012 4.987,0.991 5.021,0.991 5.062,0.991 5.097,1.016 5.093,1.1 L 5.013,3.715 C 5.009,3.833 5.104,3.934 5.223,3.938 L 5.588,3.946 C 5.705,3.951 5.806,3.858 5.811,3.741 L 5.907,0.575 C 5.919,0.134 5.722,-0.034 5.398,-0.042 L 5.139,-0.05 C 4.912,-0.059 4.748,0.013 4.542,0.18 L 0.915,2.901 C 0.869,2.943 0.827,2.951 0.793,2.951 0.743,2.951 0.709,2.939 0.709,2.863 L 0.798,0.021 C 0.802,-0.097 0.709,-0.197 0.588,-0.202 L 0.223,-0.21 C 0.104,-0.214 0.004,-0.122 0,0" /></g><g
           transform="translate(261.751,291.7607)"
           id="g192"><path
             id="path194"
             style="fill:#0054a6;fill-opacity:1;fill-rule:nonzero;stroke:none"
             d="M 0,0 0.055,0.793 C 0.146,2.09 -0.118,2.455 -0.878,2.51 l -0.13,0.009 C -1.78,2.572 -2.012,2.221 -2.054,1.6 -2.087,1.107 -1.97,0.654 -1.726,0.121 Z m -2.905,-0.529 0.037,0.495 c 0.009,0.118 0.109,0.206 0.227,0.197 l 0.235,-0.017 c -0.26,0.538 -0.449,1.088 -0.407,1.688 0.063,0.916 0.52,1.721 1.86,1.629 l 0.13,-0.008 C 0.336,3.371 0.864,2.656 0.73,0.746 L 0.676,-0.047 1.104,-0.076 c 0.903,-0.063 1.234,0.222 1.292,1.062 0.051,0.698 0.042,1.213 0.031,1.646 0.004,0.02 0.004,0.034 0.004,0.055 0.007,0.096 0.046,0.188 0.184,0.18 L 2.993,2.842 C 3.11,2.834 3.17,2.754 3.178,2.598 3.224,2.153 3.253,1.658 3.203,0.928 3.098,-0.562 2.305,-1.109 1.037,-1.021 l -3.741,0.26 c -0.117,0.009 -0.21,0.115 -0.201,0.232" /></g><g
           transform="translate(258.2197,287.1797)"
           id="g196"><path
             id="path198"
             style="fill:#0054a6;fill-opacity:1;fill-rule:nonzero;stroke:none"
             d="M 0,0 C 0.004,0.218 0.025,0.499 0.059,0.701 0.21,1.679 0.542,2.107 1.709,1.923 L 5.416,1.339 5.697,2.351 C 5.727,2.464 5.803,2.54 5.92,2.523 L 6.205,2.478 C 6.323,2.46 6.386,2.364 6.365,2.246 L 6.205,1.214 7.246,1.05 C 7.352,1.032 7.427,0.944 7.427,0.827 V 0.261 C 7.423,0.247 7.423,0.239 7.423,0.227 7.406,0.143 7.322,0.079 7.217,0.097 L 6.059,0.276 5.878,-0.869 C 5.856,-0.987 5.748,-1.066 5.63,-1.05 L 5.27,-0.991 C 5.151,-0.974 5.071,-0.86 5.089,-0.743 L 5.27,0.403 1.562,0.987 C 0.979,1.079 0.869,0.944 0.802,0.517 L 0.71,-0.075 C 0.685,-0.227 0.63,-0.294 0.525,-0.276 L 0.151,-0.218 C 0.059,-0.202 0,-0.139 0,0" /></g><g
           transform="translate(264.5381,283.8545)"
           id="g200"><path
             id="path202"
             style="fill:#0054a6;fill-opacity:1;fill-rule:nonzero;stroke:none"
             d="M 0,0 0.118,0.537 C 0.143,0.65 0.257,0.727 0.374,0.701 L 1.214,0.512 C 1.327,0.487 1.402,0.373 1.377,0.256 L 1.26,-0.277 C 1.234,-0.395 1.117,-0.466 1.004,-0.441 l -0.84,0.185 C 0.047,-0.23 -0.025,-0.113 0,0 m -6.691,1.508 0.108,0.504 C -6.558,2.129 -6.44,2.2 -6.326,2.175 L -0.974,0.986 C -0.856,0.961 -0.785,0.848 -0.81,0.73 L -0.919,0.227 C -0.944,0.113 -1.062,0.038 -1.175,0.062 l -5.353,1.19 c -0.118,0.024 -0.189,0.143 -0.163,0.256" /></g><g
           transform="translate(259.6807,279.4131)"
           id="g204"><path
             id="path206"
             style="fill:#0054a6;fill-opacity:1;fill-rule:nonzero;stroke:none"
             d="M 0,0 C 1.046,-0.319 1.844,-0.105 2.142,0.86 2.431,1.817 1.906,2.439 0.849,2.762 L 0.067,3.002 C -0.982,3.324 -1.775,3.115 -2.069,2.153 -2.363,1.196 -1.839,0.566 -0.78,0.238 Z m -2.858,2.393 c 0.461,1.511 1.691,1.972 3.203,1.511 L 1.125,3.665 C 2.633,3.203 3.393,2.129 2.931,0.617 2.469,-0.891 1.23,-1.365 -0.277,-0.902 l -0.781,0.238 c -1.507,0.463 -2.267,1.55 -1.8,3.057" /></g><g
           transform="translate(254.1182,274.6514)"
           id="g208"><path
             id="path210"
             style="fill:#0054a6;fill-opacity:1;fill-rule:nonzero;stroke:none"
             d="M 0,0 0.206,0.471 C 0.256,0.58 0.382,0.631 0.491,0.58 L 3.729,-0.83 C 4.723,-1.268 5.172,-1.066 5.5,-0.318 5.681,0.098 5.723,0.626 5.697,1.18 L 1.541,2.994 C 1.444,3.035 1.386,3.166 1.432,3.275 l 0.21,0.483 C 1.684,3.854 1.813,3.904 1.923,3.859 L 6.939,1.667 C 7.049,1.621 7.104,1.504 7.053,1.395 L 6.839,0.903 C 6.793,0.794 6.671,0.752 6.562,0.803 L 6.373,0.883 C 6.444,0.211 6.398,-0.297 6.143,-0.881 5.63,-2.061 4.656,-2.271 3.351,-1.699 L 0.113,-0.285 C 0.004,-0.238 -0.046,-0.109 0,0" /></g><g
           transform="translate(198.2505,246.7666)"
           id="g212"><path
             id="path214"
             style="fill:#0054a6;fill-opacity:1;fill-rule:nonzero;stroke:none"
             d="m 0,0 c 0,1.863 -0.592,2.246 -1.386,2.246 -0.755,0 -1.33,-0.353 -1.33,-1.696 V 0.453 c 0,-1.125 0.659,-1.428 1.469,-1.428 0.352,0 0.932,0.084 1.247,0.139 z m -1.524,-6.402 c -1.234,0 -2.137,0.138 -2.7,0.272 -0.218,0.055 -0.302,0.139 -0.302,0.302 v 1.193 c 0,0.194 0.097,0.289 0.248,0.289 h 0.067 c 0.659,-0.109 1.688,-0.193 2.498,-0.193 1.205,0 1.713,0.478 1.713,2.003 v 0.097 c -0.357,-0.072 -1.041,-0.168 -1.621,-0.168 -1.847,0 -3.383,0.785 -3.383,3.06 V 0.55 c 0,2.083 1.259,3.48 3.618,3.48 2.209,0 3.674,-1.301 3.674,-4.03 v -2.1 c 0,-3.097 -1.482,-4.302 -3.812,-4.302" /></g><g
           transform="translate(206.9409,246.1611)"
           id="g216"><path
             id="path218"
             style="fill:#0054a6;fill-opacity:1;fill-rule:nonzero;stroke:none"
             d="M 0,0 C 0,2.167 -0.588,2.688 -1.356,2.688 -2.125,2.688 -2.699,2.167 -2.699,0 v -1.18 c 0,-2.166 0.574,-2.67 1.343,-2.67 0.768,0 1.356,0.504 1.356,2.67 z m -1.356,-5.797 c -2.33,0 -3.69,1.33 -3.69,4.617 V 0 c 0,3.292 1.36,4.636 3.69,4.636 2.33,0 3.699,-1.344 3.699,-4.636 v -1.18 c 0,-3.287 -1.369,-4.617 -3.699,-4.617" /></g><g
           transform="translate(215.6484,246.1611)"
           id="g220"><path
             id="path222"
             style="fill:#0054a6;fill-opacity:1;fill-rule:nonzero;stroke:none"
             d="M 0,0 C 0,2.167 -0.592,2.688 -1.36,2.688 -2.124,2.688 -2.703,2.167 -2.703,0 v -1.18 c 0,-2.166 0.579,-2.67 1.343,-2.67 0.768,0 1.36,0.504 1.36,2.67 z m -1.36,-5.797 c -2.33,0 -3.686,1.33 -3.686,4.617 V 0 c 0,3.292 1.356,4.636 3.686,4.636 2.335,0 3.703,-1.344 3.703,-4.636 v -1.18 c 0,-3.287 -1.368,-4.617 -3.703,-4.617" /></g><g
           transform="translate(222.0635,242.4336)"
           id="g224"><path
             id="path226"
             style="fill:#0054a6;fill-opacity:1;fill-rule:nonzero;stroke:none"
             d="M 0,0 V 5.895 L -1.784,5.126 C -1.852,5.101 -1.906,5.089 -1.948,5.089 c -0.096,0 -0.151,0.066 -0.151,0.176 v 1.562 c 0,0.096 0.042,0.151 0.139,0.193 L 0.521,8.187 C 0.617,8.225 0.697,8.241 0.836,8.241 H 2.07 c 0.151,0 0.26,-0.113 0.26,-0.26 V 0 H 4.152 C 4.304,0 4.43,-0.108 4.43,-0.261 v -1.41 c 0,-0.15 -0.126,-0.277 -0.278,-0.277 h -5.974 c -0.151,0 -0.277,0.127 -0.277,0.277 v 1.41 c 0,0.153 0.126,0.261 0.277,0.261 z" /></g></g></g></g></svg>